<svg width="22" height="19" viewBox="0 0 22 19" fill="none" xmlns="http://www.w3.org/2000/svg">
<path d="M12.5384 15.1406C10.941 15.1407 9.34335 15.1407 7.74588 15.1407C6.40921 15.1407 5.76907 14.5762 5.52621 13.2552C4.87991 9.73954 4.21554 6.22718 3.55807 2.71357C3.52029 2.51243 3.46798 2.31318 3.44308 2.11061C3.41781 1.90525 3.30673 1.84629 3.11642 1.84736C2.3312 1.85209 1.54587 1.85286 0.760465 1.84758C0.354154 1.84489 0.0793124 1.64616 0.0141269 1.32859C-0.0677213 0.929486 0.214383 0.550946 0.645474 0.542858C1.52853 0.526226 2.41311 0.513958 3.29544 0.546643C4.03933 0.574169 4.57248 1.09745 4.71585 1.84636C4.81955 2.3882 4.936 2.92769 5.03134 3.4709C5.05758 3.62022 5.1188 3.67079 5.25845 3.66014C5.32943 3.65471 5.40115 3.65934 5.4725 3.65934C10.0152 3.65934 14.5578 3.66078 19.1003 3.65742C19.613 3.65706 20.0988 3.73259 20.5028 4.07411C21.1111 4.58815 21.3217 5.24321 21.1495 6.01744C20.5855 8.55305 20.0216 11.0888 19.4497 13.6227C19.2374 14.5635 18.5096 15.1373 17.5451 15.1395C15.8762 15.1433 14.2072 15.1406 12.5384 15.1406ZM5.35751 4.9669C5.50479 5.74562 5.65097 6.48539 5.78421 7.22758C6.1412 9.21577 6.49099 11.2053 6.8475 13.1936C6.94162 13.7187 7.08224 13.8291 7.62082 13.8293C9.33432 13.8301 11.0478 13.8296 12.7614 13.8296C14.35 13.8296 15.9384 13.8308 17.527 13.8287C17.9492 13.8281 18.1331 13.6873 18.2167 13.3104C18.7781 10.7835 19.3427 8.25728 19.8896 5.72712C19.9259 5.55925 19.8838 5.29884 19.7722 5.19358C19.6304 5.05946 19.3806 4.98005 19.1772 4.97938C14.9381 4.9665 10.6989 4.96809 6.45968 4.9669C6.10379 4.96672 5.74783 4.9669 5.35751 4.9669Z" fill="white"/>
<path d="M16.789 18.469C16.079 18.4694 15.4936 17.8893 15.4929 17.1849C15.4922 16.4799 16.0751 15.9011 16.7875 15.8992C17.5049 15.8972 18.0829 16.4721 18.0773 17.1821C18.0717 17.9038 17.5061 18.4688 16.789 18.469Z" fill="white"/>
<path d="M8.36791 15.8992C9.06273 15.9018 9.64073 16.481 9.64171 17.1754C9.64256 17.8972 9.05748 18.474 8.32958 18.469C7.61498 18.4642 7.05614 17.888 7.06517 17.1651C7.07408 16.4449 7.63854 15.8965 8.36791 15.8992Z" fill="white"/>
</svg>
