<svg width="28" height="27" viewBox="0 0 28 27" fill="none" xmlns="http://www.w3.org/2000/svg">
<path d="M15.1446 9.14137V9.57862C15.1446 14.9724 15.1446 20.3663 15.1446 25.7604C15.1446 26.5665 14.9531 26.7577 14.1455 26.7578C13.8791 26.7578 13.6125 26.7582 13.3464 26.7577C12.6403 26.7566 12.4243 26.5441 12.4243 25.8467C12.4242 21.6466 12.4242 17.4464 12.4242 13.2466C12.4242 11.9994 12.4242 10.752 12.4242 9.50489V9.12831C11.4497 9.25746 10.546 9.5232 9.69665 9.94618C6.50963 11.5321 4.68554 14.1045 4.18456 17.6238C3.81078 20.2493 3.43444 22.874 3.05895 25.4988C3.03027 25.6991 3.00341 25.8998 2.97204 26.0997C2.90746 26.5111 2.68017 26.7376 2.27306 26.7523C1.82604 26.7683 1.37743 26.7713 0.930412 26.7515C0.447868 26.7302 0.177116 26.3821 0.245109 25.9086C0.682975 22.8516 1.11364 19.7935 1.56188 16.7378C2.25365 12.0221 5.91613 7.95057 10.552 6.7389C11.1578 6.58058 11.7754 6.46656 12.4242 6.32338C12.4242 6.23317 12.4242 6.11805 12.4242 6.00294C12.4242 4.55311 12.4227 3.10328 12.4248 1.6537C12.4257 1.06349 12.6678 0.82362 13.2613 0.818493C13.5917 0.815563 13.9224 0.817394 14.2528 0.818249C14.9142 0.820568 15.1431 1.04408 15.1438 1.69838C15.1461 3.12672 15.1446 4.55531 15.1446 5.98365C15.1446 6.09986 15.1446 6.21608 15.1446 6.31324C15.874 6.48182 16.5941 6.59022 17.2757 6.81532C22.1144 8.4109 25.0769 11.7128 25.9802 16.7285C26.5295 19.7764 26.8766 22.8605 27.312 25.9288C27.3743 26.3704 27.1125 26.7201 26.6663 26.7459C26.1988 26.7732 25.728 26.7693 25.2601 26.7485C24.8747 26.7315 24.6473 26.4944 24.5908 26.0985C24.2875 23.9797 24.0016 21.858 23.681 19.7416C23.4728 18.3651 23.4114 16.9559 22.9287 15.6334C21.6124 12.0275 19.0548 9.86805 15.2871 9.14174C15.2569 9.13624 15.2255 9.14137 15.1446 9.14137Z" fill="#CC3A3A"/>
</svg>
