<svg width="20" height="20" viewBox="0 0 42 36" fill="none" xmlns="http://www.w3.org/2000/svg">
<path d="M24.8395 28.9244C21.6776 28.9244 18.5144 28.9244 15.3525 28.9244C12.7056 28.9244 11.4395 27.8072 10.9587 25.193C9.67892 18.2341 8.36364 11.2835 7.06201 4.32873C6.98825 3.93129 6.88445 3.53657 6.83528 3.13638C6.78475 2.72938 6.56485 2.61328 6.18789 2.61465C4.63359 2.62419 3.07928 2.62556 1.52498 2.61465C0.720508 2.60919 0.17691 2.21583 0.0471568 1.58754C-0.115368 0.798094 0.443248 0.0482622 1.29689 0.0332628C3.04513 0.000471644 4.79612 -0.0241255 6.54299 0.0400835C8.01535 0.0947252 9.07113 1.12999 9.35385 2.61328C9.56009 3.68544 9.78955 4.75352 9.9794 5.8284C10.0313 6.12344 10.1515 6.22316 10.4288 6.20265C10.5694 6.19171 10.7115 6.20128 10.8522 6.20128C19.8447 6.20128 28.8359 6.20402 37.8285 6.1972C38.8433 6.19583 39.8048 6.34607 40.6052 7.02214C41.8084 8.03967 42.2264 9.33584 41.8849 10.8683C40.7677 15.8863 39.6518 20.9043 38.5196 25.9196C38.1003 27.7812 36.6593 28.9176 34.7499 28.9217C31.446 28.9299 28.1434 28.9244 24.8395 28.9244ZM10.6241 8.78813C10.9163 10.3301 11.2059 11.7943 11.4695 13.2626C12.1756 17.1975 12.8681 21.1352 13.5742 25.0701C13.76 26.1095 14.0386 26.328 15.1053 26.328C18.4966 26.3307 21.888 26.3294 25.2807 26.3294C28.4248 26.3294 31.5703 26.3321 34.7144 26.328C35.5503 26.3266 35.9136 26.048 36.0802 25.3023C37.1906 20.3006 38.3079 15.3004 39.391 10.2933C39.4633 9.96139 39.38 9.4451 39.1588 9.2375C38.8774 8.97253 38.383 8.81409 37.9801 8.81409C29.5898 8.78813 21.1982 8.79086 12.8066 8.78813C12.1019 8.78813 11.3971 8.78813 10.6241 8.78813Z" fill="#EA1B24"/>
<path d="M33.253 35.5116C31.8476 35.5116 30.6894 34.3643 30.688 32.9698C30.6866 31.574 31.8407 30.428 33.2503 30.4253C34.6707 30.4212 35.8153 31.559 35.8044 32.9644C35.7921 34.393 34.6735 35.5102 33.253 35.5116Z" fill="#EA1B24"/>
<path d="M16.5503 35.5116C15.1216 35.5116 14.0058 34.3985 14.0044 32.9725C14.003 31.5425 15.1121 30.4294 16.5421 30.4253C17.9516 30.4198 19.1085 31.5658 19.1044 32.9616C19.1016 34.3698 17.9584 35.5103 16.5503 35.5116Z" fill="#EA1B24"/>
</svg>
