<svg width="21" height="26" viewBox="0 0 21 26" fill="none" xmlns="http://www.w3.org/2000/svg">
<path d="M4.44884 25.0597C4.10222 24.9294 3.7274 24.8466 3.41399 24.6602C2.38902 24.0502 1.90935 23.1043 1.90721 21.9297C1.89867 17.2244 1.90117 12.5192 1.91057 7.814C1.91118 7.55418 1.84136 7.43767 1.59642 7.34458C0.701341 7.00423 0.126024 5.99345 0.246324 5.02449C0.371202 4.01852 1.19371 3.1529 2.18334 3.0912C3.16637 3.0299 4.15477 3.05459 5.14086 3.04203C5.24468 3.04078 5.34862 3.04182 5.45964 3.04182C5.47765 2.67972 5.47075 2.33708 5.51573 2.00155C5.67241 0.834496 6.61431 0.0100905 7.79833 0.0044409C9.50298 -0.00329912 11.2074 0.00151503 12.9122 0.00256025C14.3502 0.00339949 15.3383 0.980298 15.3567 2.41762C15.3592 2.61279 15.3569 2.80796 15.3569 3.04182C15.4546 3.04182 15.5401 3.04182 15.6259 3.04182C16.5068 3.04182 17.3879 3.02781 18.2683 3.04559C19.2808 3.06609 20.0261 3.52212 20.4313 4.47183C20.9049 5.58176 20.3179 6.95089 19.1802 7.37073C18.9873 7.44206 18.9296 7.52971 18.9298 7.73116C18.9359 12.4282 18.9356 17.1253 18.9336 21.8224C18.9331 22.9103 18.5572 23.8285 17.6722 24.5006C17.3237 24.7654 16.9296 24.9346 16.4972 25.012C16.4606 25.0187 16.4273 25.0434 16.3926 25.0597H4.44884ZM3.07787 7.53661V7.85228C3.07787 12.4119 3.07744 16.9715 3.07952 21.5312C3.07976 21.7588 3.09374 21.9872 3.11785 22.2137C3.22161 23.1894 3.95726 23.8808 4.93041 23.8826C8.58531 23.8895 12.2402 23.89 15.8951 23.8818C16.6547 23.8801 17.2404 23.531 17.5307 22.8198C17.668 22.4836 17.7381 22.0962 17.7391 21.7318C17.7525 17.0906 17.7479 12.4494 17.7479 7.80814V7.53661H3.07787ZM10.4056 6.3271C12.974 6.3271 15.5422 6.3271 18.1104 6.32668C18.2165 6.32668 18.3226 6.32647 18.4281 6.32061C18.9275 6.29237 19.344 5.89346 19.3831 5.40814C19.4278 4.85359 19.1067 4.37664 18.6022 4.26954C18.4524 4.23775 18.2942 4.23754 18.1399 4.23754C12.9872 4.23607 7.83428 4.23607 2.68163 4.23691C2.57579 4.23691 2.46953 4.24193 2.36431 4.25197C1.86852 4.29945 1.51024 4.65926 1.44475 5.17239C1.38445 5.64494 1.66625 6.11728 2.12377 6.26141C2.29759 6.31622 2.49175 6.32417 2.67644 6.32438C5.25298 6.32814 7.82927 6.3271 10.4056 6.3271ZM6.67565 3.02802H14.1562C14.1562 2.77239 14.1673 2.52974 14.154 2.28834C14.1189 1.63861 13.6763 1.18572 13.0259 1.18111C11.2822 1.16898 9.53813 1.16898 7.79418 1.18237C7.18022 1.18697 6.75304 1.59049 6.68089 2.20153C6.64971 2.4651 6.67565 2.73558 6.67565 3.02802Z" fill="#9F9F9F"/>
<path d="M13.2804 15.1948C13.2804 13.4343 13.2798 11.674 13.2816 9.91348C13.2816 9.79214 13.2906 9.66916 13.3115 9.54971C13.358 9.28383 13.5881 9.09117 13.859 9.07925C14.1213 9.06775 14.369 9.24931 14.4336 9.51311C14.4604 9.6223 14.4752 9.73756 14.4754 9.8499C14.4775 13.4278 14.4771 17.0055 14.4771 20.5834C14.4773 20.8261 14.4443 21.0564 14.2354 21.2181C13.8866 21.4886 13.3874 21.2991 13.31 20.8644C13.2889 20.7449 13.2816 20.6217 13.2816 20.5004C13.2798 18.7317 13.2804 16.9633 13.2804 15.1948Z" fill="#9F9F9F"/>
<path d="M7.53833 15.1981C7.53833 16.9925 7.54034 18.7869 7.53454 20.5813C7.53411 20.739 7.51171 20.9107 7.44604 21.0511C7.33892 21.2806 7.12329 21.3663 6.87432 21.3343C6.63525 21.3038 6.46917 21.168 6.40179 20.9337C6.37292 20.834 6.36102 20.7258 6.36102 20.6214C6.35913 17.0163 6.35913 13.4112 6.35974 9.80628C6.35974 9.38874 6.52063 9.15906 6.84777 9.10006C7.18664 9.03878 7.48828 9.25591 7.52868 9.59521C7.53997 9.69185 7.53784 9.79059 7.53814 9.88828C7.53851 11.6582 7.53833 13.4281 7.53833 15.1981Z" fill="#9F9F9F"/>
<path d="M9.82717 15.1976C9.82717 13.4279 9.82705 11.658 9.8276 9.88824C9.8276 9.78219 9.82509 9.67488 9.84035 9.57071C9.8799 9.30399 10.1008 9.10777 10.3754 9.08413C10.6276 9.06238 10.883 9.22157 10.9585 9.47092C10.9955 9.59288 11.0047 9.72696 11.0047 9.85583C11.007 13.4281 11.0069 17.0004 11.0056 20.5726C11.0056 20.6779 11.0043 20.7862 10.9804 20.8877C10.911 21.1824 10.6659 21.3583 10.3699 21.3389C10.0824 21.3203 9.86196 21.1008 9.83413 20.8005C9.82595 20.7115 9.82741 20.6214 9.82741 20.5316C9.82705 18.7536 9.82717 16.9757 9.82717 15.1976Z" fill="#9F9F9F"/>
</svg>
