<svg width="41" height="36" viewBox="0 0 41 36" fill="none" xmlns="http://www.w3.org/2000/svg">
<path d="M40.3598 12.9903C40.2211 13.7757 40.1235 14.5709 39.9353 15.3439C39.4372 17.3883 38.4375 19.1954 37.1884 20.8685C35.2614 23.4504 32.9187 25.6325 30.5 27.7363C27.6491 30.2165 24.7827 32.6796 21.9179 35.1435C20.8183 36.0896 19.6357 36.1312 18.5759 35.2116C14.8483 31.9797 11.112 28.7578 7.42989 25.4753C5.53707 23.788 3.83614 21.9069 2.45015 19.7648C-0.0347095 15.9252 -0.70927 11.8132 0.865681 7.48982C2.29 3.57955 5.05513 1.02193 9.2065 0.221147C13.5095 -0.608687 16.9748 0.93245 19.7268 4.24642C19.861 4.40804 19.9851 4.57735 20.1152 4.74202C20.1311 4.76167 20.1545 4.77547 20.2192 4.82869C20.3689 4.6385 20.5149 4.44539 20.6682 4.25801C22.2634 2.30513 24.2085 0.875321 26.697 0.285844C31.0354 -0.7415 35.6406 1.06954 38.146 4.75386C39.383 6.57308 40.0686 8.58138 40.2893 10.7602C40.3034 10.9006 40.3361 11.0396 40.3598 11.1795V12.9903ZM20.1901 33.4942C20.2905 33.4146 20.3635 33.3605 20.4318 33.3017C23.3818 30.7568 26.343 28.2237 29.2793 25.6624C31.4069 23.8068 33.4616 21.8729 35.1774 19.6141C36.518 17.8494 37.5571 15.941 37.8662 13.7065C38.2448 10.9648 37.7563 8.40889 36.1962 6.09187C33.3794 1.90804 26.9914 0.768144 23.071 5.12019C22.538 5.71175 22.0251 6.34114 21.6201 7.02303C20.9118 8.21614 19.4355 8.23018 18.7876 6.99971C18.7209 6.87251 18.6335 6.75594 18.5534 6.63582C17.8642 5.6003 17.0332 4.69502 16.0417 3.94392C12.3654 1.15987 6.894 2.14046 4.29952 5.98641C1.81417 9.67146 1.78951 13.552 3.82515 17.4544C4.87911 19.4753 6.36031 21.1929 8.01021 22.7387C10.2587 24.8458 12.5727 26.8845 14.8825 28.9252C16.6225 30.4622 18.4008 31.9561 20.1901 33.4942Z" fill="#EA1B24"/>
</svg>
