<svg width="15" height="22" viewBox="0 0 15 22" fill="none" xmlns="http://www.w3.org/2000/svg">
<path d="M4.00089 10.973C5.32247 9.84065 6.62075 8.72855 7.91863 7.61605C9.79211 6.01036 11.6674 4.40692 13.5371 2.7968C14.0158 2.38447 14.2332 1.8656 14.0821 1.22821C13.9327 0.597988 13.5335 0.201717 12.9125 0.0478474C12.3779 -0.0845608 11.9035 0.0635258 11.4858 0.421688C9.10292 2.46507 6.71791 4.50582 4.33358 6.54753C3.10896 7.59618 1.88227 8.64225 0.660594 9.69432C-0.227318 10.4589 -0.216153 11.5158 0.669998 12.2729C4.29177 15.3671 7.91158 18.4636 11.531 21.5604C12.2569 22.1816 13.2413 22.1411 13.8168 21.4602C14.4123 20.7558 14.3127 19.8138 13.5797 19.1866C10.5079 16.5579 7.43688 13.9283 4.366 11.2986C4.2473 11.1969 4.13261 11.0906 4.00089 10.973Z" fill="#F1F3F2"/>
</svg>
