<svg width="140" height="101" viewBox="0 0 140 101" fill="none" xmlns="http://www.w3.org/2000/svg">
<path d="M9.29117 1.04883H130.667C135.457 1.04883 139.339 4.93921 139.339 9.72923V92.0905C139.339 96.8726 135.457 100.763 130.667 100.763H9.29117C4.50116 100.763 0.618652 96.8726 0.618652 92.0905V9.72923C0.618652 4.93921 4.50116 1.04883 9.29117 1.04883Z" fill="white"/>
<path d="M130.667 101H9.29108C6.90792 101 4.6747 100.069 2.98596 98.3877C1.30512 96.7068 0.381836 94.4657 0.381836 92.0904V9.72919C0.381836 4.8129 4.37483 0.812012 9.29108 0.812012H130.667C135.583 0.812012 139.576 4.8129 139.576 9.72919V92.0904C139.576 96.9988 135.583 101 130.667 101ZM9.29108 1.28554C4.64312 1.28554 0.855305 5.07329 0.855305 9.72919V92.0904C0.855305 94.3395 1.73125 96.4622 3.32528 98.0484C4.91932 99.6424 7.03419 100.518 9.29108 100.518H130.667C135.315 100.518 139.103 96.7384 139.103 92.0904V9.72919C139.103 5.07329 135.315 1.28554 130.667 1.28554H9.29108Z" fill="#E5E5E5"/>
<rect x="57.0083" y="27.5959" width="25.9432" height="46.6208" fill="#FF5F00"/>
<path d="M58.659 50.9058C58.6511 41.8071 62.8256 33.2136 69.9829 27.595C57.1044 17.4784 38.4652 19.7116 28.3486 32.5822C18.2241 45.4608 20.4573 64.1 33.3359 74.2167C44.0917 82.6682 59.2271 82.6682 69.9829 74.2167C62.8256 68.598 58.6511 60.0045 58.659 50.9058Z" fill="#EB001B"/>
<path d="M117.954 50.9058C117.954 67.2802 104.681 80.5534 88.3065 80.5534C81.6541 80.5534 75.2069 78.3201 69.9829 74.2167C82.8536 64.0922 85.0868 45.4529 74.9623 32.5743C73.5024 30.7278 71.8295 29.0549 69.9829 27.595C82.8536 17.4784 101.493 19.7116 111.609 32.5822C115.721 37.8063 117.954 44.2613 117.954 50.9058Z" fill="#F79E1B"/>
<path d="M115.121 69.2766V68.3217H115.508V68.1324H114.529V68.3217H114.908V69.2766H115.121ZM117.023 69.2766V68.1245H116.723L116.376 68.9215L116.037 68.1245H115.729V69.2766H115.942V68.4085L116.265 69.1582H116.486L116.81 68.4085V69.2766H117.023Z" fill="#F79E1B"/>
</svg>
