<svg width="23" height="23" viewBox="0 0 23 23" fill="none" xmlns="http://www.w3.org/2000/svg">
<path d="M21.0539 5.70645C20.909 5.44333 20.9099 5.24521 21.0314 4.9736C21.3233 4.32065 21.6011 3.65738 21.821 2.97763C22.0483 2.2745 21.8618 1.64981 21.27 1.1774C20.7259 0.743009 20.0433 0.714322 19.3878 1.0892C18.9681 1.32925 18.5476 1.56796 18.1327 1.81607C17.8851 1.96414 17.6899 1.96878 17.4215 1.79312C15.1061 0.277005 12.5645 -0.265597 9.82887 0.119474C4.76283 0.832608 0.802987 5.03799 0.40162 10.1175C0.0496305 14.5699 2.32276 19.0114 6.38502 20.8404C6.91236 21.0778 7.97346 21.5628 8.53877 21.685C10.539 22.1174 12.359 22.1777 14.2714 21.6908C14.2714 21.6908 15.6163 21.2738 16.0414 21.0774C16.5516 20.8416 16.9945 20.5445 17.4315 20.2497C17.7772 20.0168 17.834 19.6214 17.6273 19.3001C17.4218 18.9806 17.0526 18.8838 16.6829 19.0597C16.5707 19.1132 16.4663 19.1836 16.3591 19.2476C11.5242 22.1356 5.32227 20.3233 2.80647 15.2842C2.25923 14.1879 1.9145 13.0355 1.85572 11.7475H2.39704C4.78828 11.7475 7.17988 11.7244 9.57075 11.754C11.9622 11.7835 14.2175 11.3182 16.2983 10.102C16.4038 10.0403 16.6136 10.026 16.7038 10.0899C17.9631 10.9823 19.3538 11.5251 20.9388 11.7026C20.9388 11.8388 20.9464 11.9318 20.9376 12.0231C20.7599 13.892 20.0601 15.5489 18.9028 17.0192C18.8063 17.1419 18.6983 17.2561 18.6083 17.3834C18.3601 17.7345 18.4012 18.1455 18.7014 18.3896C18.9859 18.6211 19.387 18.592 19.6755 18.3101C19.7868 18.2013 19.8864 18.0794 19.9841 17.9578C22.8054 14.4442 23.2284 9.65115 21.0539 5.70645ZM11.8566 10.171C11.2391 10.2522 10.6127 10.2959 9.99 10.2996C7.48975 10.3139 4.98927 10.3054 2.4889 10.3054H1.74061C1.97645 9.37076 2.11561 8.5068 2.4112 7.70035C3.89393 3.6542 7.88361 1.10763 12.1773 1.44992C13.9384 1.59036 15.5595 2.16836 16.9863 3.22409C17.4009 3.53091 17.7815 3.6011 18.2344 3.34561C18.8176 3.01651 19.409 2.7015 20.0039 2.39364C20.1165 2.33523 20.2609 2.33865 20.3908 2.31344C20.398 2.44516 20.4403 2.58633 20.4077 2.70724C19.3792 6.50869 15.7803 9.65457 11.8566 10.171ZM17.8336 9.11569C18.5647 8.34347 19.2769 7.59121 20.0242 6.80172C20.5477 7.89706 20.8868 9.01077 20.9508 10.2552C19.7799 10.1195 18.758 9.73599 17.8336 9.11569Z" fill="white"/>
<path d="M11.4045 14.8562C10.7924 14.8725 10.2832 14.634 9.86274 14.2062C9.53938 13.8775 9.5337 13.4612 9.82289 13.1669C10.0875 12.8974 10.4875 12.8963 10.8325 13.1642C11.3248 13.5461 11.4846 13.5462 11.9759 13.165C12.322 12.8963 12.7208 12.8969 12.9855 13.1663C13.2722 13.4578 13.2674 13.8811 12.947 14.2076C12.5267 14.6357 12.0161 14.8716 11.4045 14.8562Z" fill="white"/>
<path d="M8.06154 13.3395C8.04103 13.5066 8.03658 13.6956 7.99154 13.8743C7.90981 14.1973 7.68953 14.3712 7.3525 14.3845C6.99532 14.3985 6.7148 14.2382 6.65822 13.8933C6.59645 13.5167 6.58809 13.1172 6.64174 12.7399C6.69326 12.3773 6.97597 12.1888 7.35451 12.2056C7.71114 12.2214 7.93526 12.4165 8.006 12.7638C8.04299 12.9449 8.04299 13.1337 8.06154 13.3395Z" fill="white"/>
<path d="M16.2161 13.2919C16.2161 13.4009 16.2226 13.5104 16.2151 13.6189C16.1819 14.097 15.9205 14.3771 15.5057 14.3848C15.0844 14.3926 14.8079 14.1267 14.7704 13.6496C14.7511 13.402 14.7493 13.1497 14.7734 12.9028C14.8171 12.4564 15.0973 12.1988 15.4982 12.2032C15.8947 12.2077 16.1681 12.4776 16.212 12.9183C16.2243 13.0416 16.2139 13.1673 16.2139 13.2919H16.2161Z" fill="white"/>
</svg>
