<svg width="23" height="24" viewBox="0 0 23 24" fill="none" xmlns="http://www.w3.org/2000/svg">
<path d="M10.6686 5.88975C10.6686 6.97074 10.6704 8.05172 10.6682 9.13273C10.6657 10.2443 9.85471 11.0624 8.74979 11.0637C6.58823 11.0661 4.42679 11.0661 2.26523 11.0637C1.16123 11.0625 0.338536 10.2424 0.336857 9.13793C0.33347 6.97603 0.333195 4.81403 0.336979 2.65207C0.338902 1.56646 1.1659 0.733084 2.24613 0.730902C4.41678 0.726324 6.58753 0.726568 8.75815 0.730734C9.8447 0.732794 10.6649 1.55955 10.6679 2.64678C10.6709 3.72777 10.6686 4.80877 10.6686 5.88975ZM8.77512 2.64274H2.24964V9.16137H8.77512V2.64274Z" fill="white"/>
<path d="M10.6687 18.0944C10.6687 19.1753 10.6705 20.2563 10.6681 21.3373C10.6657 22.443 9.84893 23.2678 8.74621 23.2697C6.58474 23.2734 4.42327 23.2736 2.26183 23.2697C1.16326 23.2676 0.338402 22.4378 0.336785 21.3356C0.33355 19.1737 0.333123 17.0118 0.337029 14.8499C0.338982 13.763 1.16531 12.9381 2.24975 12.9367C4.4204 12.9338 6.59106 12.9338 8.76162 12.9367C9.84948 12.9382 10.6651 13.7593 10.6681 14.8515C10.6708 15.9324 10.6687 17.0134 10.6687 18.0944ZM2.24984 21.3576H8.76601V14.8325H2.24984V21.3576Z" fill="white"/>
<path d="M22.8647 4.5V6.3605H12.5552V4.5H22.8647Z" fill="white"/>
<path d="M12.5511 14.7942V12.9517H22.8507V14.7942H12.5511Z" fill="white"/>
<path d="M19.1091 20.4697V22.3193H12.5549V20.4697H19.1091Z" fill="white"/>
<path d="M12.551 10.1115V8.26123H19.1065V10.1115H12.551Z" fill="white"/>
<path d="M12.5547 18.5491V16.6948H17.2287C17.2347 16.7906 17.2455 16.8869 17.2458 16.9832C17.2477 17.4407 17.2454 17.898 17.2473 18.3553C17.2479 18.4836 17.2458 18.5869 17.0658 18.5861C15.5845 18.5797 14.1031 18.5797 12.6218 18.5768C12.6055 18.5767 12.5892 18.5637 12.5547 18.5491Z" fill="white"/>
<path d="M17.227 0.75V2.60127H12.5562V0.75H17.227Z" fill="white"/>
</svg>
