<svg width="23" height="23" viewBox="0 0 23 23" fill="none" xmlns="http://www.w3.org/2000/svg">
<path d="M15.987 0.283691H16.425C16.5737 0.396851 16.7355 0.49646 16.8685 0.625793C17.2853 1.03088 17.6913 1.44714 18.1093 1.86682C18.5256 1.44971 18.927 1.0387 19.3395 0.639282C19.4777 0.505493 19.6446 0.401367 19.7984 0.283691H20.1489C20.7428 0.627136 20.7959 1.05249 20.3056 1.5426C19.8882 1.95972 19.4704 2.37653 19.0422 2.80402C19.4678 3.22632 19.874 3.64606 20.2993 4.04541C20.5687 4.29834 20.6998 4.57538 20.5932 4.9425C20.5079 5.23633 20.5782 5.47644 20.7814 5.71838C21.1281 6.13098 21.4397 6.57349 21.7596 7.0083C22.1607 7.55347 22.5553 8.10345 22.9528 8.65143V20.6553C22.9373 20.7022 22.917 20.7482 22.9071 20.7962C22.6882 21.8672 21.7125 22.7086 20.6481 22.7107C17.3636 22.7173 14.079 22.7184 10.7945 22.7102C9.59375 22.7072 8.50696 21.6197 8.50514 20.422C8.50473 20.1517 8.44134 19.9719 8.20999 19.8336C8.09381 19.7642 8.00262 19.651 7.90466 19.5531C6.01517 17.6647 4.12619 15.7756 2.23746 13.8864C1.88138 13.5303 1.51495 13.1836 1.17396 12.8135C0.271528 11.834 0.288023 10.4022 1.22751 9.45862C3.89512 6.7793 6.57077 4.10791 9.25101 1.44128C9.37005 1.32288 9.55899 1.24426 9.72778 1.21204C10.1851 1.12457 10.649 1.07153 11.1105 1.00568C12.3868 0.823547 13.6636 0.643677 14.9395 0.45874C15.2897 0.407959 15.6378 0.342468 15.987 0.283691ZM17.1757 2.80505C16.802 2.43066 16.4481 2.07275 16.0884 1.7207C16.0492 1.68237 15.974 1.65417 15.9208 1.66119C15.3937 1.73102 14.8678 1.80957 14.3415 1.88495C12.9785 2.08026 11.6152 2.27283 10.2532 2.47491C10.1412 2.49152 10.0144 2.5481 9.93526 2.62695C7.3555 5.19812 4.78006 7.77368 2.20579 10.3505C1.71048 10.8462 1.71095 11.483 2.20511 11.9777C4.44916 14.224 6.69424 16.4692 8.94064 18.7131C9.42361 19.1957 10.0684 19.1949 10.553 18.7108C13.1349 16.1315 15.7156 13.5509 18.2924 10.9664C18.3673 10.8913 18.4203 10.7716 18.4371 10.6654C18.5248 10.1116 18.5963 9.5553 18.6755 9.00012C18.8658 7.6665 19.0579 6.33307 19.2448 4.9989C19.2524 4.9444 19.2328 4.86633 19.1958 4.82837C18.8406 4.46295 18.479 4.10382 18.1525 3.77625C17.8391 4.08899 17.537 4.39032 17.2142 4.7124C17.3446 4.83472 17.4994 4.96832 17.6405 5.11511C17.8989 5.38373 17.9026 5.78577 17.658 6.04218C17.4049 6.3078 16.9912 6.32532 16.716 6.05603C16.0899 5.4436 15.4708 4.82385 14.8578 4.19824C14.5892 3.92413 14.6022 3.50574 14.8629 3.255C15.1269 3.00098 15.5273 3.00922 15.8064 3.27893C15.9523 3.41992 16.0918 3.56738 16.2332 3.71094C16.2704 3.68829 16.2911 3.68042 16.3056 3.66614C16.5913 3.3844 16.8762 3.10187 17.1757 2.80505ZM9.83265 20.3928C9.89377 21.017 10.3423 21.3997 11.0031 21.3999C14.1273 21.4009 17.2515 21.4005 20.3756 21.4002C21.2043 21.4002 21.6386 20.9625 21.6387 20.1276C21.6388 16.8282 21.6391 13.5287 21.6382 10.2293C21.6381 9.83575 21.7173 9.41425 21.6017 9.05682C21.4911 8.71503 21.1747 8.43982 20.9481 8.13574C20.7695 7.89581 20.5907 7.65607 20.4105 7.41742C20.3766 7.37256 20.3358 7.33276 20.2871 7.2782C20.2675 7.32935 20.248 7.36139 20.2433 7.39551C20.0778 8.56366 19.9058 9.73096 19.7542 10.9009C19.7054 11.2782 19.575 11.5786 19.2964 11.8552C16.7787 14.3545 14.2686 16.8614 11.7699 19.3796C11.223 19.9308 10.638 20.3639 9.83265 20.3928Z" fill="white"/>
<path d="M8.80957 15.8472C8.33509 15.843 8.04748 15.4033 8.20862 14.917C8.59513 13.7504 8.98615 12.5851 9.37495 11.4193C10.003 9.53595 10.6305 7.65235 11.2588 5.76905C11.3762 5.41706 11.6044 5.23523 11.9209 5.23633C12.2068 5.23749 12.4734 5.41578 12.5347 5.70142C12.5692 5.86249 12.5557 6.05311 12.5038 6.21058C11.6353 8.84119 10.7575 11.4687 9.88144 14.0968C9.74115 14.5176 9.60215 14.9387 9.45764 15.358C9.34708 15.6788 9.11502 15.8498 8.80957 15.8472Z" fill="white"/>
<path d="M14.0788 12.5151C12.9875 12.5126 12.0979 11.6237 12.1021 10.5399C12.1063 9.45764 13.0037 8.56513 14.0864 8.56641C15.1675 8.56787 16.0681 9.47028 16.0635 10.5475C16.059 11.6355 15.1691 12.5176 14.0788 12.5151ZM13.4382 10.5449C13.4386 10.9089 13.727 11.1971 14.088 11.1942C14.4478 11.1913 14.7303 10.8987 14.7263 10.5331C14.7223 10.179 14.4397 9.89453 14.0875 9.89026C13.7299 9.88599 13.4378 10.1804 13.4382 10.5449Z" fill="white"/>
<path d="M6.64066 12.5147C5.54292 12.5094 4.6728 11.6318 4.678 10.535C4.68316 9.44282 5.56657 8.56385 6.65652 8.56641C7.73898 8.56898 8.62713 9.46473 8.6245 10.5512C8.62186 11.6377 7.73061 12.5198 6.64066 12.5147ZM6.65183 11.194C7.00587 11.192 7.30904 10.8841 7.30131 10.5342C7.29377 10.1884 6.99914 9.89545 6.65394 9.89075C6.30261 9.88599 5.99744 10.189 5.99697 10.5431C5.99645 10.9003 6.29383 11.1959 6.65183 11.194Z" fill="white"/>
</svg>
