<svg width="22" height="23" viewBox="0 0 22 23" fill="none" xmlns="http://www.w3.org/2000/svg">
<path d="M21.6781 5.67215C21.6786 5.35312 21.5424 5.1417 21.262 5.02597C21.1809 4.99259 21.101 4.95658 21.021 4.92051L18.6205 3.84989L18.7168 3.67026C18.9851 3.17038 19.0656 2.64579 18.9561 2.11106C18.6691 0.711948 17.2311 -0.215115 15.75 0.0431856C14.8616 0.198459 14.046 0.602756 13.2568 1.27896C13.1324 1.38559 13.0658 1.39432 12.9164 1.3234C12.6216 1.18351 12.3181 1.05063 12.0248 0.922092C11.7665 0.808933 11.4993 0.691867 11.24 0.570896C10.9629 0.441562 10.7207 0.439914 10.4546 0.565402C10.2087 0.681491 9.95447 0.792392 9.7085 0.899692C9.41883 1.02616 9.11926 1.15689 8.8291 1.29752C8.6427 1.38803 8.54334 1.37369 8.36707 1.23038C7.69251 0.682468 6.63623 -0.0391508 5.24964 0.0181612C4.11524 0.0653414 3.07556 0.845188 2.77783 1.87247C2.57862 2.5596 2.672 3.2078 3.06372 3.84989C2.84473 3.94748 2.62757 4.04447 2.41199 4.14078C1.74768 4.43759 1.12024 4.71793 0.477907 4.99625C0.146975 5.13956 -0.00036424 5.36118 0.000368182 5.715C0.00757033 9.59848 0.00744826 13.5046 1.97108e-06 17.3248C-0.00060838 17.6693 0.140505 17.8855 0.457399 18.0258C3.92261 19.5589 7.29663 21.0564 10.486 22.4767C10.6122 22.5329 10.7321 22.561 10.8497 22.561C10.9642 22.561 11.0767 22.5345 11.191 22.4814C11.4578 22.3577 11.7322 22.2376 11.9974 22.1216C12.1353 22.0613 12.2731 22.0009 12.4104 21.94L14.6864 20.9283C16.8523 19.9656 19.0183 19.0028 21.1852 18.0423C21.4424 17.9283 21.6802 17.7674 21.6796 17.3658C21.6736 13.9468 21.673 10.231 21.6781 5.67215ZM10.2861 10.6294C10.2814 13.3615 10.2813 16.1393 10.2811 18.8257L10.281 21.1446L8.7749 20.4768C7.91211 20.0941 7.04932 19.7113 6.1853 19.3315C6.06226 19.2775 6.03137 19.2489 6.03162 19.1363C6.03711 16.3368 6.03711 13.4903 6.03711 10.7376L6.03723 8.63059L7.83753 9.43003C8.59815 9.76822 9.35864 10.1065 10.1205 10.442C10.252 10.5 10.2864 10.5197 10.2861 10.6294ZM16.754 8.34287C16.7537 8.17173 16.7938 8.1124 16.9591 8.04062C17.8113 7.67026 18.674 7.28586 19.5081 6.9141C19.8287 6.77121 20.1494 6.62827 20.4702 6.48581C20.4982 6.47336 20.5265 6.46201 20.5585 6.44974L20.5582 8.56699C20.5579 11.2881 20.5575 14.1018 20.5641 16.8695C20.5646 17.0447 20.5251 17.1046 20.363 17.1747C19.5198 17.5389 18.6669 17.9186 17.8419 18.2857C17.5364 18.4218 17.2307 18.5578 16.9249 18.6935C16.8737 18.716 16.8223 18.7379 16.7655 18.7618C16.7628 18.7172 16.7607 18.6765 16.7607 18.6366L16.7606 16.2348C16.7607 13.6482 16.7609 10.9735 16.754 8.34287ZM14.3749 6.01975C15.0226 5.85416 15.6923 5.6829 16.3435 5.47312C16.6593 5.37143 16.9531 5.20346 17.2374 5.04105C17.3793 4.95993 17.5258 4.87607 17.6716 4.80277C17.7675 4.75455 17.8282 4.74839 17.8419 4.75302C18.3796 4.98154 18.9083 5.21677 19.468 5.46573L19.7201 5.57773C19.6318 5.61905 19.5497 5.65738 19.4667 5.69419L18.864 5.9625C18.045 6.32724 17.1981 6.70444 16.3611 7.0651C16.2712 7.10398 16.1281 7.10636 16.042 7.07047C15.4069 6.80686 14.7758 6.53208 14.1654 6.26615C14.0721 6.22556 13.9794 6.18515 13.8872 6.14505C14.0491 6.103 14.2117 6.06144 14.3749 6.01975ZM17.4269 3.51859C16.8095 4.15036 16.0122 4.44425 15.3137 4.64829C14.2371 4.96292 13.1451 5.08005 12.1254 5.15988C11.9907 5.17032 11.8564 5.18302 11.6948 5.19822C11.6732 5.20023 11.6511 5.20237 11.6283 5.2045C11.6619 5.14072 11.6945 5.0784 11.7263 5.01712C11.8522 4.77628 11.9711 4.54874 12.1019 4.33481C12.8143 3.17002 13.6281 2.30667 14.5898 1.69541C15.1804 1.32022 15.6898 1.1417 16.1899 1.1417C16.3315 1.1417 16.4724 1.15604 16.6143 1.18424C17.2584 1.31247 17.7306 1.75272 17.8466 2.3331C17.931 2.75528 17.7937 3.14304 17.4269 3.51859ZM9.7876 5.18167C9.50232 5.15665 9.20728 5.13077 8.91809 5.1008C7.76636 4.98166 6.73303 4.84861 5.75037 4.42582C5.26135 4.21543 4.76904 3.9216 4.32691 3.57627C3.85913 3.21079 3.69592 2.71506 3.86707 2.18064C4.03186 1.66635 4.41724 1.34189 5.04529 1.18894C5.1897 1.15384 5.33533 1.13608 5.48389 1.13608C5.83533 1.13608 6.20374 1.23508 6.61499 1.43717C7.59424 1.91843 8.42542 2.67325 9.23096 3.81284C9.46192 4.13944 9.6676 4.49515 9.86646 4.83927C9.9364 4.96036 10.0082 5.08457 10.0811 5.20761C9.98328 5.19889 9.88538 5.19028 9.7876 5.18167ZM3.96045 4.76895C5.18787 5.61692 6.59461 5.91831 7.80872 6.10141C7.82935 6.10447 7.84986 6.10764 7.87061 6.11106C7.78906 6.14865 7.71216 6.18369 7.63477 6.21732L7.34827 6.34244C6.78272 6.58921 6.19788 6.84446 5.61963 7.08713C5.54651 7.11783 5.44776 7.12552 5.39917 7.10434C4.36389 6.6525 3.31494 6.1846 2.30042 5.73203L1.95764 5.57932L2.20496 5.46958C2.74439 5.23008 3.30213 4.98246 3.84998 4.7468C3.86853 4.7399 3.9303 4.74808 3.96045 4.76895ZM7.37232 7.56339C8.30091 7.15848 9.17798 6.77597 10.0718 6.39035C10.1372 6.36222 10.2253 6.35923 10.2957 6.35947C10.372 6.35996 10.4489 6.36631 10.5303 6.37308C10.6779 6.38517 10.8306 6.39792 10.9822 6.37314C11.4031 6.30429 11.7725 6.44864 12.1454 6.61582C12.8066 6.91214 13.4606 7.19498 14.1531 7.49442C14.3649 7.58597 14.5784 7.67832 14.7937 7.77182C14.7859 7.77573 14.7781 7.77945 14.7703 7.78299L14.3246 7.9813C13.2371 8.46567 12.1124 8.96646 11.0029 9.45072C10.9177 9.48789 10.7957 9.49503 10.731 9.46714C9.63172 8.98886 8.51807 8.49326 7.44092 8.01407L6.89539 7.77127L7.37232 7.56339ZM10.8441 4.18155L9.4928 2.23301L9.68445 2.1478C10.0407 1.98899 10.4091 1.82486 10.7811 1.66532C10.8119 1.65226 10.8683 1.65207 10.8995 1.66544C11.2731 1.82517 11.6469 1.99131 12.0084 2.15189L12.2047 2.23899L10.8441 4.18155ZM1.12207 8.47007V6.44712L1.17896 6.47251C1.31128 6.53159 1.43445 6.58646 1.55774 6.64127L1.99866 6.83664C2.92041 7.24503 3.84216 7.65366 4.76441 8.06113C4.88965 8.11643 4.92578 8.13742 4.92554 8.25199C4.91919 11.0503 4.9187 13.8954 4.91846 16.6467L4.91834 18.7591C4.88123 18.7469 4.84595 18.7343 4.81275 18.7195C4.41138 18.5417 4.01038 18.3633 3.60925 18.185C2.84534 17.8455 2.05542 17.4944 1.27698 17.152C1.15467 17.0982 1.11658 17.061 1.11682 16.9333C1.12219 14.1122 1.12219 11.2439 1.12207 8.47007ZM11.3926 10.7264C11.3921 10.555 11.4324 10.4956 11.5974 10.4239C12.5602 10.0053 13.5349 9.5712 14.4778 9.15134C14.8151 9.00107 15.1525 8.85092 15.49 8.70108C15.5389 8.67929 15.5884 8.65842 15.6436 8.63529L15.6434 10.5143C15.6433 13.3645 15.6432 16.2148 15.6458 19.0652C15.646 19.2281 15.6293 19.2795 15.5115 19.3307C14.4913 19.7754 13.4573 20.2347 12.4574 20.6787C12.1089 20.8335 11.7605 20.9882 11.412 21.1426C11.4095 21.1438 11.4071 21.1449 11.4047 21.1458C11.4015 21.0909 11.399 21.041 11.399 20.9913L11.3989 18.6304C11.399 16.04 11.399 13.3612 11.3926 10.7264Z" fill="#281B22"/>
</svg>
