<svg width="25" height="24" viewBox="0 0 25 24" fill="none" xmlns="http://www.w3.org/2000/svg">
<path d="M23.8217 3.88203C23.3712 3.07227 22.9051 2.27094 22.4309 1.47474C21.8484 0.496376 20.7258 0.191292 19.7929 0.850929C19.0652 1.36555 18.3808 1.96979 17.7817 2.62934C17.2682 3.19471 16.903 3.89484 16.4619 4.55073C13.7717 3.40559 11.0457 3.422 8.31032 4.57777C8.23984 4.45237 8.17593 4.35017 8.12286 4.24259C7.4371 2.8509 6.43814 1.73664 5.14111 0.890755C4.08734 0.20356 2.9874 0.467598 2.35457 1.55991C1.81084 2.49854 1.27979 3.44443 0.743164 4.38703V5.28803C1.05569 6.14991 1.69452 6.56342 2.57047 6.77961C3.22911 6.94215 3.84288 7.28626 4.43369 7.53184C3.96893 8.44697 3.53912 9.26319 3.13905 10.0937C2.91965 10.5489 2.86624 11.0278 3.08116 11.5171C3.13095 11.6303 3.11453 11.7855 3.09244 11.9151C2.6254 14.6681 3.21707 17.1668 4.90038 19.3958C5.77676 20.5564 6.88766 21.4464 8.20526 22.1176C8.20526 22.1176 9.20114 22.6557 10.1209 22.8164C11.8101 23.1115 13.4331 23.1514 15.0869 22.7129C15.9699 22.4787 16.7544 22.0617 16.7544 22.0617C16.9963 21.9165 17.3182 21.7373 17.6248 21.5352C17.9649 21.311 18.0551 20.9535 17.8703 20.6567C17.6757 20.3441 17.3396 20.274 16.9773 20.4753C16.8464 20.5481 16.7227 20.6336 16.5934 20.7095C14.8546 21.7315 12.9756 22.0793 11.0034 21.7279C6.58411 20.9404 3.698 16.9423 4.25903 12.4663C4.29404 12.187 4.40643 12.1043 4.67804 12.1091C5.51042 12.1237 6.34337 12.1105 7.17599 12.1151C10.2916 12.1321 13.0665 11.1756 15.4903 9.21241C15.6561 9.07801 15.8202 8.94147 15.9984 8.79505C16.7836 9.58338 17.5441 10.3474 18.3053 11.1107C18.8426 11.6495 19.4863 11.9708 20.2396 12.0942C20.3569 12.1134 20.5409 12.2715 20.5424 12.3679C20.557 13.2498 20.6206 14.1429 20.5103 15.0123C20.3264 16.4611 19.6781 17.7342 18.7568 18.8678C18.4717 19.2188 18.475 19.5257 18.7343 19.7843C19.0201 20.0693 19.4443 20.0042 19.7509 19.6187C21.4482 17.4844 22.1475 15.0676 21.8006 12.3557C21.7679 12.1002 21.646 11.8012 21.7346 11.5952C22.0287 10.9116 21.8277 10.3051 21.5358 9.7129C21.1881 9.00776 20.7949 8.32508 20.4073 7.60658C21.0689 7.16416 21.8191 6.86893 22.6158 6.66816C23.9156 6.34052 24.4734 5.05335 23.8217 3.88203ZM2.38237 5.40525C2.01294 5.30817 1.8732 4.92213 2.06351 4.57764C2.53075 3.73124 3.01486 2.89368 3.51251 2.06501C3.71529 1.72755 4.02344 1.66767 4.35762 1.87659C5.6308 2.67243 6.56464 3.76197 7.16483 5.14164C6.52206 5.65583 5.91716 6.13984 5.27396 6.65446C4.41103 6.08051 3.4263 5.67945 2.38237 5.40525ZM20.6591 10.8605C20.0105 10.8397 19.5448 10.592 19.1461 10.1934C18.2973 9.34467 17.4492 8.49534 16.5992 7.64783C16.1332 7.18342 15.865 7.18287 15.3902 7.6312C13.14 9.75581 10.4694 10.8405 7.37265 10.8627C6.33681 10.8701 5.30099 10.8639 4.20518 10.8639C4.26822 10.6714 4.31111 10.5089 4.37347 10.3543C6.26799 5.66251 11.862 3.58387 16.3632 5.89515C16.6394 6.03696 16.8621 6.19038 16.931 6.53388C16.9983 6.86893 17.2633 6.97334 17.5994 7.02015C17.8737 7.05845 18.1881 7.16199 18.385 7.3444C19.4209 8.30415 20.1538 9.4712 20.6591 10.8605ZM22.3612 5.44135C21.3469 5.68592 20.4101 6.09943 19.6565 6.59266C19.0759 6.29414 18.5551 6.05402 18.0662 5.76087C17.8832 5.65113 17.7744 5.41782 17.6288 5.23728C18.2179 3.82798 19.1497 2.72266 20.4275 1.91004C20.822 1.65913 21.1215 1.71922 21.3576 2.116C21.8305 2.91053 22.2938 3.71101 22.7431 4.5189C22.9739 4.93394 22.813 5.33234 22.3612 5.44135Z" fill="white"/>
<path d="M12.4198 16.374C11.898 16.3709 11.4344 16.1744 11.0724 15.7636C10.835 15.4941 10.8388 15.1571 11.0644 14.916C11.2972 14.6671 11.6151 14.6456 11.9092 14.859C12.4174 15.2275 12.4608 15.2276 12.9716 14.8618C13.2707 14.6475 13.5873 14.6669 13.8174 14.9134C14.0469 15.1595 14.0545 15.4899 13.8153 15.7615C13.4539 16.1721 12.9898 16.3691 12.4198 16.374Z" fill="white"/>
<path d="M8.29853 15.0193C8.2982 14.3805 8.5023 14.067 8.92347 14.0592C9.35691 14.0511 9.5706 14.375 9.56986 15.0387C9.56974 15.1064 9.57194 15.1744 9.56895 15.242C9.54875 15.6962 9.29573 15.9845 8.92448 15.9781C8.55415 15.9716 8.31584 15.6843 8.29908 15.2227C8.29655 15.155 8.29875 15.0871 8.29853 15.0193Z" fill="white"/>
<path d="M15.3261 14.9995C15.3259 14.9182 15.3237 14.8367 15.3263 14.7556C15.3398 14.3323 15.5914 14.0543 15.9555 14.0591C16.3039 14.0638 16.5454 14.3288 16.56 14.7333C16.5673 14.9363 16.5684 15.1402 16.5582 15.343C16.539 15.7254 16.3005 15.973 15.9587 15.9791C15.6077 15.9853 15.3465 15.7164 15.3271 15.3246C15.3217 15.2166 15.3263 15.1078 15.3261 14.9995Z" fill="white"/>
</svg>
