<svg width="36" height="36" viewBox="0 0 36 36" fill="none" xmlns="http://www.w3.org/2000/svg">
<path d="M19.277 35.9995H16.747C16.181 35.9235 15.611 35.8665 15.049 35.7685C10.984 35.0555 7.53204 33.1985 4.74104 30.1565C2.29004 27.4855 0.77803 24.3485 0.226044 20.7575C0.154037 20.2875 0.0880432 19.8155 0.019043 19.3445C0.019043 18.4545 0.019043 17.5645 0.019043 16.6745C0.042038 16.5985 0.0730438 16.5225 0.0850372 16.4445C0.204041 15.6725 0.280029 14.8905 0.442032 14.1275C2.37604 5.02554 11.248 -1.14145 20.503 0.177546C23.46 0.598536 26.191 1.63253 28.566 3.44854C34.361 7.87754 36.759 13.7535 35.761 20.9665C35.372 23.7765 34.246 26.3325 32.55 28.6135C29.69 32.4605 25.902 34.8465 21.179 35.7195C20.549 35.8365 19.911 35.9075 19.277 35.9995ZM31.461 26.9585C35.416 21.3145 35.47 12.1485 28.995 6.12954C22.736 0.311533 12.892 0.354532 6.66904 6.47454C0.548035 12.4945 0.688034 21.4635 4.56303 26.9535C6.86203 23.6355 9.95404 21.4245 13.862 20.3285C10.034 17.5055 9.95204 12.3635 12.838 9.39153C15.646 6.50054 20.324 6.48654 23.161 9.36854C26.058 12.3105 26.02 17.4785 22.159 20.3345C24.076 20.8515 25.82 21.6705 27.412 22.8055C29.008 23.9445 30.349 25.3345 31.461 26.9585ZM30.295 28.5185C24.582 19.2845 11.358 19.3625 5.73503 28.5155C11.934 35.9615 23.809 36.1875 30.295 28.5185ZM17.999 19.7915C20.97 19.8025 23.373 17.4245 23.406 14.4415C23.439 11.4895 20.993 9.02253 18.025 9.01454C15.057 9.00654 12.616 11.4455 12.618 14.4155C12.62 17.3815 15.022 19.7805 17.999 19.7915Z" fill="#0158AA"/>
</svg>
