<svg width="13" height="20" viewBox="0 0 13 20" fill="none" xmlns="http://www.w3.org/2000/svg">
<path d="M9.27592 9.97546C8.07447 8.94605 6.89423 7.93505 5.71433 6.92369C4.01117 5.46397 2.30633 4.00629 0.606642 2.54255C0.171442 2.1677 -0.02622 1.696 0.11117 1.11655C0.247034 0.543622 0.609942 0.183377 1.17442 0.0435002C1.66047 -0.0768764 2.09175 0.0577519 2.47149 0.383352C4.63771 2.24097 6.8059 4.0962 8.97347 5.95231C10.0868 6.90562 11.2019 7.8566 12.3126 8.81302C13.1197 9.50813 13.1096 10.4689 12.304 11.1572C9.01148 13.9701 5.72074 16.7851 2.43035 19.6004C1.77043 20.1651 0.875533 20.1282 0.352358 19.5093C-0.188974 18.8689 -0.0984246 18.0126 0.567915 17.4424C3.36041 15.0526 6.15229 12.6621 8.94399 10.2714C9.0519 10.179 9.15616 10.0824 9.27592 9.97546Z" fill="#F1F3F2"/>
</svg>
