<svg width="26" height="26" viewBox="0 0 26 26" fill="none" xmlns="http://www.w3.org/2000/svg">
<path d="M24.9302 26.0002C24.7262 25.8422 24.5032 25.7022 24.3202 25.5232C22.2242 23.4682 20.1332 21.4072 18.0422 19.3472C17.9762 19.2822 17.9262 19.2002 17.8612 19.1162C17.6942 19.2342 17.5652 19.3242 17.4372 19.4172C15.9112 20.5262 14.2152 21.1982 12.3412 21.4362C10.0602 21.7272 7.88224 21.3802 5.86123 20.2962C2.74424 18.6232 0.756232 16.0622 0.165228 12.5432C-0.411768 9.10124 0.528235 6.06524 2.89423 3.49824C4.62124 1.62423 6.77123 0.49023 9.28924 0.12823C12.4852 -0.33077 15.3892 0.440242 17.9032 2.47723C20.0412 4.20924 21.3612 6.46023 21.7612 9.19424C22.1592 11.9132 21.5742 14.4312 20.0342 16.7142C19.7422 17.1472 19.4062 17.5512 19.0742 17.9902C19.1202 18.0392 19.1732 18.1012 19.2312 18.1582C21.2982 20.1942 23.3682 22.2282 25.4322 24.2682C25.6382 24.4722 25.8092 24.7112 25.9962 24.9342V25.3912C25.8722 25.6732 25.6662 25.8732 25.3872 26.0002H24.9302ZM20.1742 11.3812C20.1792 9.31123 19.8442 7.93023 19.1692 6.63523C18.2782 4.92724 16.9722 3.62623 15.2692 2.73724C13.4872 1.80824 11.5922 1.49424 9.59823 1.77824C7.57523 2.06724 5.82424 2.92524 4.38424 4.36424C2.72423 6.02424 1.81823 8.03524 1.71624 10.3992C1.65723 11.7652 1.86823 13.0852 2.43624 14.3202C3.90023 17.5032 6.40223 19.3492 9.86823 19.7922C12.2852 20.1012 14.5192 19.5022 16.4812 18.0342C18.8992 16.2252 20.1012 13.7812 20.1742 11.3812Z" fill="#676767"/>
</svg>
