<svg width="20" height="19" viewBox="0 0 20 19" fill="none" xmlns="http://www.w3.org/2000/svg">
<path d="M18.112 19.0002H13.473C13.439 18.9882 13.405 18.9732 13.37 18.9652C13.015 18.8892 12.649 18.8472 12.307 18.7342C10.717 18.2082 9.56401 17.2172 8.98801 15.6032C8.341 13.7932 7.673 11.9902 7.015 10.1842C6.98801 10.1132 6.957 10.0442 6.929 9.9732L6.895 9.98119V10.1782V13.9062C6.895 15.1982 6.89601 16.4902 6.895 17.7822C6.89401 18.3902 6.623 18.7682 6.052 18.9662C6.037 18.9712 6.026 18.9882 6.013 19.0002H5.53C4.843 18.7622 4.60001 18.2562 4.64601 17.5632C4.66301 17.3072 4.649 17.0482 4.649 16.7872H2.22701C2.22701 17.1642 2.23001 17.5282 2.22601 17.8912C2.22301 18.3312 2.015 18.6542 1.638 18.8702C1.54401 18.9242 1.43701 18.9572 1.33701 19.0002H0.891006C0.436005 18.8612 0.139008 18.5642 0 18.1092V8.46219C0.0950012 8.3892 0.180008 8.28519 0.286011 8.2522C0.541 8.17319 0.742004 8.37119 0.742004 8.67719C0.743011 11.6832 0.743011 14.6882 0.743011 17.6942C0.743011 17.7562 0.740005 17.8182 0.744003 17.8792C0.761002 18.0922 0.916 18.2512 1.108 18.2552C1.30501 18.2592 1.46901 18.0942 1.48401 17.8722C1.48801 17.8102 1.485 17.7482 1.485 17.6872C1.485 12.9562 1.48601 8.22519 1.48401 3.49419C1.483 3.1532 1.55101 2.8332 1.70801 2.53219C2.06801 1.8422 2.82401 1.4172 3.591 1.49119C4.069 1.5382 4.401 1.8332 4.677 2.19819C5.084 2.7362 5.341 3.35219 5.569 3.97919C6.759 7.24619 7.94101 10.5152 9.12901 13.7822C9.377 14.4662 9.57501 15.1772 9.90201 15.8212C10.732 17.4552 12.163 18.1612 13.941 18.2542C14.172 18.2662 14.327 18.1082 14.332 17.8992C14.338 17.6772 14.188 17.5432 13.948 17.5122C13.551 17.4612 13.143 17.4372 12.766 17.3182C11.671 16.9752 10.831 16.3272 10.424 15.2052C9.056 11.4272 7.68501 7.6502 6.31201 3.87319C6.04201 3.1312 5.75101 2.39519 5.278 1.7512C4.565 0.778196 3.51601 0.478193 2.41 0.961195C1.33801 1.4292 0.789001 2.2772 0.747009 3.4412C0.723999 4.04619 0.742004 4.6522 0.743011 5.25919C0.743011 5.4432 0.654999 5.56919 0.486008 5.6242C0.325012 5.67719 0.181 5.63019 0.0720062 5.4952C0.0500031 5.46819 0.0240021 5.44419 0 5.41919C0 4.6272 0 3.8362 0 3.04419C0.0130005 3.00419 0.0310059 2.96419 0.0370026 2.92319C0.251007 1.3152 1.72801 0.00919879 3.349 0.00319446C4.716 -0.00180279 6.08301 -0.00180279 7.44901 0.00619281C7.681 0.00819934 7.918 0.0451943 8.14301 0.103193C8.94901 0.311193 9.50601 0.849195 9.94901 1.5232C10.385 2.18719 10.682 2.92019 10.951 3.6632C12.323 7.44019 13.69 11.2182 15.07 14.9922C15.165 15.2532 15.315 15.5112 15.499 15.7192C16.133 16.4362 16.966 16.7352 17.904 16.7722C18.452 16.7932 18.903 17.1702 18.994 17.7032C19.085 18.2282 18.775 18.7482 18.262 18.9372C18.211 18.9552 18.162 18.9792 18.112 19.0002ZM5.41701 0.7432C5.599 0.9662 5.77 1.1542 5.918 1.3592C6.412 2.04719 6.73001 2.82419 7.01701 3.6142C8.39101 7.3962 9.76001 11.1802 11.139 14.9602C11.231 15.2102 11.365 15.4602 11.536 15.6632C12.177 16.4252 13.036 16.7372 14.008 16.7722C14.542 16.7922 14.995 17.1772 15.068 17.7062C15.092 17.8842 15.071 18.0672 15.071 18.2572C15.994 18.2572 16.933 18.2602 17.873 18.2552C18.095 18.2532 18.261 18.0802 18.258 17.8832C18.255 17.6842 18.089 17.5432 17.866 17.5132C17.471 17.4602 17.063 17.4362 16.685 17.3192C15.581 16.9762 14.74 16.3192 14.333 15.1932C12.995 11.4972 11.657 7.8012 10.315 4.10619C10.029 3.31719 9.737 2.53019 9.25301 1.8332C8.901 1.32619 8.464 0.923193 7.83701 0.805196C7.554 0.752195 7.26001 0.751196 6.97101 0.746198C6.46001 0.737196 5.94901 0.7432 5.41701 0.7432ZM5.44301 5.8572L5.41101 5.8642C5.41101 6.3252 5.41101 6.7862 5.41101 7.2472C5.41101 7.2842 5.40201 7.3252 5.414 7.35819C5.433 7.4072 5.46001 7.4562 5.494 7.4972C5.871 7.95519 5.871 8.5162 5.50301 8.9732C5.451 9.0382 5.416 9.13619 5.41501 9.2192C5.40701 9.8062 5.40701 10.3932 5.414 10.9802C5.41501 11.0572 5.45001 11.1482 5.498 11.2092C5.87001 11.6682 5.871 12.2282 5.5 12.6862C5.451 12.7472 5.41501 12.8372 5.414 12.9152C5.40701 13.5082 5.40701 14.1012 5.414 14.6942C5.41501 14.7712 5.45201 14.8622 5.50101 14.9222C5.871 15.3802 5.871 15.9402 5.496 16.3982C5.459 16.4432 5.41501 16.5022 5.41501 16.5552C5.40901 17.0122 5.403 17.4692 5.418 17.9262C5.427 18.2002 5.733 18.3382 5.968 18.1922C6.13 18.0922 6.134 17.9342 6.134 17.7692C6.13301 14.6672 6.127 11.5652 6.14 8.46219C6.14201 7.98519 6.08101 7.53519 5.90001 7.0942C5.76001 6.7522 5.64801 6.39919 5.52301 6.05219C5.49901 5.9862 5.47 5.9222 5.44301 5.8572ZM4.63901 5.6552H2.242V7.1122H4.63901V5.6552ZM2.23401 10.8242H4.634V9.3642H2.23401V10.8242ZM4.64 13.0752H2.24101V14.5352H4.64V13.0752ZM2.235 8.61019C3.052 8.61019 3.84801 8.6142 4.64401 8.6072C4.903 8.6052 5.056 8.4042 5.013 8.1612C4.98001 7.98119 4.828 7.86919 4.599 7.8682C3.84001 7.86719 3.08 7.8682 2.321 7.86919C2.293 7.86919 2.26401 7.87819 2.235 7.8832V8.61019ZM2.235 12.3202C3.052 12.3202 3.84801 12.3252 4.64401 12.3182C4.903 12.3152 5.056 12.1142 5.013 11.8712C4.98001 11.6922 4.828 11.5802 4.599 11.5792C3.84001 11.5772 3.08 11.5782 2.321 11.5792C2.293 11.5792 2.26401 11.5882 2.235 11.5942V12.3202ZM2.235 16.0312C3.05101 16.0312 3.847 16.0352 4.64301 16.0282C4.895 16.0262 5.04501 15.8392 5.015 15.6012C4.99001 15.4052 4.83301 15.2902 4.58101 15.2892C3.84001 15.2882 3.10001 15.2892 2.35901 15.2892C2.31801 15.2892 2.27701 15.2982 2.235 15.3032V16.0312ZM2.23401 4.89919C3.05101 4.89919 3.847 4.9022 4.64301 4.89719C4.83301 4.8962 5.011 4.7472 5.007 4.6162C5 4.3742 4.82501 4.1592 4.621 4.15819C3.843 4.15619 3.065 4.15819 2.287 4.16019C2.27101 4.16019 2.25401 4.17119 2.23401 4.17919V4.89919ZM2.23601 3.4042H4.515C4.354 3.0492 4.181 2.72519 3.916 2.4592C3.763 2.3052 3.58 2.2092 3.35201 2.2332C2.72501 2.2992 2.287 2.75319 2.23601 3.4042Z" fill="black"/>
<path d="M0 6.79214C0.10701 6.71814 0.20401 6.61314 0.322006 6.57915C0.497009 6.52815 0.670013 6.65315 0.727005 6.82214C0.781006 6.98415 0.715012 7.16614 0.568008 7.25714C0.416 7.35214 0.222 7.32614 0.0960083 7.19214C0.0630035 7.15814 0.0320129 7.12314 0 7.08914V6.79214Z" fill="black"/>
</svg>
