<svg width="21" height="19" viewBox="0 0 21 19" fill="none" xmlns="http://www.w3.org/2000/svg">
<path d="M19.8644 10.4379C20.5514 11.399 20.5834 12.301 19.8584 13.318C20.1544 13.698 20.3494 14.127 20.3874 14.613C20.4394 15.28 20.1544 15.822 19.7194 16.295C19.0754 16.9949 18.2564 17.432 17.3914 17.7859C16.1414 18.2969 14.8334 18.5899 13.4984 18.778C12.1464 18.968 10.7874 19.031 9.42537 18.986C7.24437 18.914 5.10137 18.621 3.05737 17.806C2.23637 17.4789 1.46137 17.071 0.822366 16.448C0.318368 15.957 -0.0356278 15.389 0.00437313 14.65C0.032373 14.154 0.226373 13.7169 0.541368 13.3139C0.226373 12.891 0.00637203 12.427 0.00336605 11.889C0.000367697 11.349 0.20537 10.878 0.540369 10.44C0.225366 10.0199 0.00637203 9.55595 0.00336605 9.01795C0.000367697 8.47695 0.20537 8.00695 0.53737 7.57095C0.464372 7.45895 0.383371 7.34795 0.31537 7.22995C-0.190627 6.35195 -0.0866303 5.42395 0.619371 4.64195C0.810373 4.43095 1.02537 4.23895 1.24837 4.06295C1.37337 3.96595 1.41637 3.86995 1.41237 3.71695C1.40237 3.29995 1.40537 2.88195 1.41037 2.46395C1.41637 1.86595 1.88137 1.40895 2.47337 1.41095C3.06437 1.41295 3.51337 1.87095 3.51637 2.47895C3.51737 2.60295 3.51637 2.72695 3.51637 2.87495C3.85537 2.77296 4.17637 2.68195 4.49137 2.57395C4.53337 2.55895 4.56837 2.46095 4.56937 2.39995C4.57637 1.95396 4.57037 1.50695 4.57437 1.05995C4.57937 0.524954 4.97637 0.0679536 5.48137 0.00794846C6.04137 -0.0580458 6.55637 0.279952 6.65337 0.830954C6.70837 1.14395 6.67537 1.47295 6.68037 1.79495C6.68237 1.89595 6.68037 1.99695 6.68037 2.11595C6.96837 2.08295 7.23437 2.05395 7.50037 2.02296C9.22337 1.82295 10.9494 1.82295 12.6724 1.99395C14.4384 2.16995 16.1674 2.51895 17.7944 3.26195C18.5034 3.58695 19.1674 3.98295 19.7054 4.56295C20.5504 5.47495 20.6184 6.46796 19.9064 7.48995C19.8904 7.51295 19.8754 7.53795 19.8624 7.55795C20.5804 8.57795 20.5544 9.46595 19.8644 10.4379ZM6.69337 2.82295V6.26495C6.77137 6.25595 6.83637 6.24795 6.90237 6.24195C7.82537 6.15595 8.74737 6.03395 9.67237 5.99295C11.0644 5.93095 12.4514 6.03195 13.8204 6.29595C15.3574 6.59296 16.8464 7.01895 18.1244 8.05795C18.4514 7.80295 18.7994 7.55895 19.1154 7.27995C19.8264 6.65195 19.8664 5.82595 19.2424 5.10895C18.8614 4.67095 18.3894 4.35295 17.8784 4.09296C15.9844 3.13195 13.9394 2.77296 11.8494 2.65195C10.7484 2.58795 9.64137 2.61995 8.53737 2.64796C7.92637 2.66395 7.31837 2.76095 6.69337 2.82295ZM19.3164 13.831C18.7044 14.32 18.0284 14.6729 17.3124 14.954C15.2164 15.777 13.0214 16.072 10.7904 16.122C9.78437 16.1449 8.77537 16.0639 7.76937 16.001C6.71337 15.9359 5.67637 15.738 4.65537 15.468C3.52537 15.169 2.43137 14.775 1.45537 14.11C1.32437 14.0209 1.19837 13.926 1.05937 13.8269C0.794366 14.184 0.64837 14.551 0.740373 14.985C0.850366 15.504 1.19037 15.864 1.58437 16.178C2.39737 16.8269 3.34537 17.206 4.32937 17.504C5.92737 17.987 7.56737 18.196 9.23037 18.263C11.2144 18.343 13.1774 18.204 15.1144 17.76C16.2504 17.5 17.3504 17.136 18.3464 16.51C18.7904 16.2309 19.1954 15.908 19.4704 15.45C19.7944 14.9099 19.7394 14.302 19.3164 13.831ZM1.08237 8.08895C0.52337 8.67795 0.624368 9.52595 1.19837 10.08C1.83037 10.69 2.57237 11.142 3.40437 11.434C5.13737 12.044 6.92137 12.399 8.75837 12.497C10.0104 12.565 11.2604 12.56 12.5074 12.4379C13.6594 12.325 14.7934 12.098 15.9094 11.7859C16.9854 11.485 18.0114 11.085 18.8834 10.359C19.1794 10.113 19.4484 9.85395 19.5844 9.47895C19.7714 8.96295 19.6654 8.50896 19.3604 8.12295C18.8214 8.42795 18.3244 8.76895 17.7814 9.00695C15.7734 9.88496 13.6464 10.275 11.4724 10.366C9.81737 10.435 8.15737 10.415 6.51537 10.116C5.45937 9.92295 4.41537 9.68195 3.39937 9.33195C2.55937 9.04295 1.78037 8.63795 1.08237 8.08895ZM1.07937 10.954C0.550371 11.5339 0.623369 12.412 1.22437 12.987C1.81437 13.552 2.50937 13.945 3.26037 14.2429C5.16437 15 7.16137 15.305 9.19337 15.378C10.2214 15.415 11.2544 15.3539 12.2834 15.301C13.4424 15.242 14.5814 15.03 15.6994 14.725C16.7064 14.45 17.6894 14.101 18.5524 13.492C18.9704 13.197 19.3814 12.886 19.5724 12.376C19.7664 11.861 19.6664 11.2989 19.3544 11.003C18.7654 11.33 18.2184 11.709 17.6154 11.954C15.3554 12.874 12.9814 13.235 10.5534 13.2709C9.09037 13.292 7.63537 13.197 6.19437 12.927C5.11437 12.724 4.05237 12.455 3.02237 12.068C2.31537 11.803 1.67337 11.416 1.07937 10.954ZM3.00337 8.39896C5.18837 9.26195 7.43437 9.62695 9.73537 9.66995C12.3514 9.71995 14.9074 9.37395 17.3884 8.40195C17.3224 8.34895 17.2914 8.31895 17.2554 8.29595C17.0944 8.19595 16.9354 8.08995 16.7684 8.00095C15.5374 7.34595 14.2004 7.04795 12.8344 6.86495C11.6144 6.70095 10.3884 6.64995 9.15637 6.71995C7.63937 6.80595 6.14937 7.02095 4.71037 7.52395C4.11637 7.73196 3.54537 7.99095 3.00337 8.39896ZM2.81337 3.96595C2.17937 4.18996 1.36737 4.79895 1.01237 5.28195C0.51037 5.96495 0.693368 6.69595 1.19837 7.20595C1.40737 7.41695 1.65037 7.59795 1.89237 7.77395C2.26937 8.04695 2.27737 8.04395 2.64437 7.76595C2.71637 7.71195 2.80537 7.61695 2.80637 7.53995C2.81637 6.35495 2.81337 5.16995 2.81337 3.96595ZM5.95037 2.91895C5.16637 3.14995 4.39237 3.37595 3.62037 3.60995C3.57637 3.62295 3.52337 3.69895 3.52137 3.74795C3.51037 3.96595 3.51637 4.18495 3.51637 4.42495C3.59737 4.40095 3.65937 4.38495 3.71937 4.36495C4.30037 4.17195 4.88137 3.98095 5.46137 3.78595C5.99437 3.60696 5.99437 3.60595 5.97637 3.04595C5.97637 3.03195 5.97137 3.01795 5.95037 2.91895ZM5.96137 4.39796C5.94637 4.39695 5.93037 4.39095 5.91837 4.39495C5.15037 4.64695 4.38237 4.89895 3.61637 5.15595C3.57437 5.17095 3.52437 5.23395 3.52137 5.27695C3.51037 5.45495 3.51637 5.63495 3.51637 5.83895C4.18937 5.61595 4.83237 5.40395 5.47337 5.18996C6.02137 5.00595 6.02137 5.00495 5.97037 4.41795C5.96937 4.41095 5.96437 4.40495 5.96137 4.39796ZM5.97137 5.78795C5.90037 5.80695 5.85137 5.81895 5.80437 5.83495C5.20937 6.03095 4.61537 6.22695 4.02137 6.42395C3.46637 6.60795 3.46637 6.60795 3.52837 7.18795L5.97137 6.37295V5.78795ZM5.28537 2.38195L5.97737 2.23595C5.97737 1.83895 5.98237 1.45895 5.97537 1.07896C5.97037 0.864951 5.82537 0.716948 5.64137 0.709952C5.46137 0.702948 5.29437 0.849951 5.28937 1.05795C5.27737 1.48895 5.28537 1.91995 5.28537 2.38195ZM2.11937 3.47195C2.81337 3.22795 2.84937 3.17596 2.81337 2.50595C2.80137 2.27795 2.66737 2.12395 2.47537 2.11695C2.28037 2.10995 2.12637 2.27095 2.12137 2.50896C2.11337 2.82295 2.11937 3.13695 2.11937 3.47195Z" fill="black"/>
<path d="M11.4061 7.69496C11.7321 7.68396 12.0261 7.77996 12.2921 7.96396C12.6601 8.21796 13.0171 8.21596 13.3921 7.96696C13.9721 7.58196 14.6781 7.60496 15.2191 8.00596C15.4381 8.16796 15.4921 8.37196 15.3641 8.55096C15.2331 8.73296 15.0381 8.74896 14.8061 8.58696C14.4611 8.34596 14.1191 8.34296 13.7661 8.57296C13.1521 8.97096 12.5351 8.98496 11.9201 8.57096C11.6051 8.35796 11.2841 8.34296 10.9521 8.53596C10.7131 8.67396 10.5101 8.63096 10.4031 8.43396C10.3041 8.24996 10.3651 8.03396 10.5961 7.92496C10.8481 7.80496 11.1211 7.73096 11.3851 7.63696L11.4061 7.69496Z" fill="black"/>
<path d="M6.43695 7.68207C6.76295 7.68307 7.05495 7.78406 7.31795 7.97007C7.65995 8.21206 8.00495 8.21907 8.36094 8.00107C8.57995 7.86806 8.78195 7.90906 8.89195 8.09707C8.99495 8.27006 8.93495 8.46706 8.73894 8.60406C8.23295 8.95807 7.55095 8.98507 7.02794 8.62906C6.60395 8.34106 6.21395 8.31907 5.80095 8.63206C5.61595 8.77106 5.39695 8.72706 5.28095 8.55607C5.17195 8.39506 5.21295 8.18806 5.38695 8.05407C5.69694 7.81607 6.03895 7.66807 6.43695 7.68207Z" fill="black"/>
</svg>
