<svg width="14" height="19" viewBox="0 0 14 19" fill="none" xmlns="http://www.w3.org/2000/svg">
<path d="M10.5631 -0.00012207C10.6801 0.0308781 10.7991 0.0598774 10.9161 0.0938778C12.4281 0.538877 13.1501 2.21388 12.4691 3.69688C12.2101 4.25988 11.8061 4.68788 11.2671 4.99288C11.2121 5.02388 11.1491 5.10588 11.1521 5.16188C11.2061 6.44088 11.1041 6.91188 10.4991 8.08188C10.7141 8.25188 10.9351 8.41788 11.1461 8.59488C11.7531 9.10688 12.2601 9.70088 12.5901 10.4279C12.6321 10.5199 12.6281 10.6669 12.5811 10.7529C12.5441 10.8199 12.4011 10.8719 12.3171 10.8579C12.2321 10.8439 12.1321 10.7539 12.0921 10.6719C11.6721 9.79988 11.0101 9.14788 10.2301 8.60088C10.2101 8.58688 10.1881 8.57788 10.1761 8.57088L9.35911 9.34388C9.52613 9.77588 9.72211 10.1959 9.84711 10.6359C10.0091 11.2039 9.92911 11.7859 9.83912 12.3629C9.7941 12.6579 9.77512 12.9579 9.73911 13.2979C10.1931 13.1419 10.5981 13.0579 11.0211 13.1119C11.4451 13.1669 11.8311 13.3169 12.2251 13.6009C12.2821 13.3489 12.3551 13.1269 12.3771 12.9009C12.4081 12.5819 12.4031 12.2599 12.4091 11.9389C12.4131 11.7569 12.4971 11.6379 12.6471 11.6149C12.8041 11.5909 12.9621 11.7049 12.9671 11.8759C12.9891 12.5679 13.0161 13.2619 12.6671 13.9009C12.6431 13.9449 12.6691 14.0409 12.7041 14.0899C13.7341 15.5479 13.2691 17.6979 11.7221 18.6159C10.6341 19.2619 9.40012 19.0819 8.54612 18.1469C8.48112 18.0759 8.4321 18.0649 8.34211 18.0979C7.19611 18.5159 6.05012 18.5149 4.90211 18.0979C4.85511 18.0809 4.7641 18.0979 4.73411 18.1339C3.71012 19.3429 1.91813 19.2579 0.817114 18.0169C-0.119867 16.9619 -0.274897 15.3389 0.47611 14.2219C0.59812 14.0409 0.59812 13.9219 0.520117 13.7189C0.398108 13.4079 0.32511 13.0679 0.294104 12.7349C0.135107 11.0309 0.821112 9.68488 2.09812 8.60388C2.31013 8.42488 2.53412 8.26088 2.73411 8.10388C2.57313 7.71188 2.39213 7.33388 2.2641 6.93888C2.08311 6.38088 2.04813 5.79988 2.11213 5.21688C2.1261 5.08988 2.08613 5.03588 1.98011 4.97588C0.627111 4.22088 0.124121 2.50288 0.887121 1.22488C1.27811 0.569878 1.85813 0.169878 2.61411 0.0338783C2.64313 0.0288773 2.6691 0.0108776 2.69712 -0.00012207C2.9321 -0.00012207 3.16712 -0.00012207 3.40211 -0.00012207C3.42313 0.0108776 3.44312 0.0278778 3.46512 0.0318775C4.23411 0.162878 4.83713 0.556877 5.28211 1.19188C5.3501 1.28788 5.40711 1.31388 5.52411 1.28388C6.26011 1.09588 6.99912 1.09688 7.73511 1.28388C7.85212 1.31388 7.91013 1.28788 7.97712 1.19188C8.35413 0.642878 8.86613 0.277878 9.50611 0.0928783C9.62211 0.0588779 9.74012 0.0308781 9.85813 -0.00012207C10.0931 -0.00012207 10.3281 -0.00012207 10.5631 -0.00012207ZM6.62812 9.66888C8.81312 9.67188 10.5991 7.89088 10.6041 5.70388C10.6101 3.50288 8.83512 1.71288 6.64112 1.70588C4.44813 1.69888 2.65812 3.48388 2.65513 5.68188C2.65211 7.88088 4.42911 9.66488 6.62812 9.66888ZM4.45112 9.68288C4.4321 9.69588 4.42011 9.70188 4.41312 9.71088C4.39213 9.74088 4.37211 9.77188 4.35212 9.80288C3.87012 10.5419 3.8201 11.3469 3.97211 12.1889C4.04813 12.6129 4.12711 13.0409 4.00712 13.4739C3.99613 13.5139 4.03712 13.5899 4.07612 13.6189C4.61512 14.0169 4.97913 14.5399 5.21412 15.1619C5.23713 15.2219 5.29511 15.2909 5.35312 15.3129C5.57111 15.3949 5.79612 15.4609 6.01911 15.5299C6.20811 15.5899 6.29712 15.7249 6.2511 15.8889C6.20811 16.0399 6.06013 16.1169 5.88111 16.0759C5.72111 16.0389 5.56312 15.9949 5.38813 15.9509C5.43012 16.5199 5.33512 17.0529 5.10511 17.5679C6.13312 17.9359 7.1391 17.9409 8.15613 17.5639C7.91511 17.0399 7.83512 16.5089 7.86912 15.9469C7.79313 15.9679 7.73511 15.9849 7.67612 16.0009C7.56312 16.0299 7.45112 16.0659 7.33613 16.0869C7.18711 16.1159 7.04212 16.0209 7.00712 15.8829C6.97013 15.7359 7.04111 15.5969 7.19312 15.5449C7.42112 15.4689 7.65412 15.4099 7.87711 15.3229C7.95011 15.2949 8.02613 15.2139 8.05411 15.1389C8.28611 14.5289 8.64713 14.0169 9.17713 13.6309C9.25513 13.5739 9.25712 13.5249 9.24711 13.4319C9.22111 13.1889 9.20212 12.9409 9.22111 12.6979C9.24811 12.3349 9.3201 11.9769 9.35612 11.6149C9.42612 10.9039 9.22111 10.2659 8.82212 9.67788C7.36011 10.4169 5.91013 10.4199 4.45112 9.68288ZM4.82212 16.0409C4.81211 15.4329 4.52411 14.7489 3.91111 14.2139C2.71113 13.1679 1.06412 13.6669 0.645117 15.2029C0.344122 16.3049 0.877111 17.5899 1.86912 18.1529C2.69611 18.6219 3.66511 18.4869 4.26713 17.8089C4.66312 17.3639 4.82413 16.8299 4.82212 16.0409ZM8.42512 16.2739C8.44312 16.4249 8.45313 16.6049 8.48612 16.7799C8.75211 18.1829 10.1851 18.8489 11.4101 18.1409C12.4791 17.5229 12.9811 16.0819 12.5271 14.9349C12.0691 13.7769 10.8421 13.3239 9.75611 13.9359C8.86411 14.4369 8.47712 15.2489 8.42512 16.2739ZM3.46711 13.2829C3.5441 12.9639 3.46811 12.6609 3.4191 12.3589C3.31611 11.7259 3.2511 11.0899 3.45011 10.4699C3.57313 10.0859 3.75812 9.72288 3.91312 9.35688L3.07612 8.56388C2.05613 9.27788 1.20411 10.1379 0.928106 11.4119C0.772131 12.1329 0.774115 12.8629 1.05411 13.5819C1.82313 13.0519 2.61811 12.9649 3.46711 13.2829ZM4.81013 1.51488C4.34611 0.797878 3.40711 0.415878 2.60911 0.610878C1.7641 0.817877 1.19211 1.47988 1.10413 2.35188C1.02112 3.18788 1.53312 4.14288 2.23713 4.46188C2.33713 4.28788 2.34711 4.15288 2.18912 3.97588C2.01813 3.78288 1.88212 3.53788 1.79911 3.29288C1.50013 2.41288 1.93513 1.52788 2.76813 1.28588C3.33512 1.12088 3.83811 1.27688 4.29612 1.62788C4.34211 1.66388 4.42112 1.70188 4.46613 1.68688C4.58613 1.64488 4.69611 1.57388 4.81013 1.51488ZM8.45313 1.50488C8.6821 1.68088 8.86213 1.72088 9.13111 1.52488C9.84913 1.00388 10.7951 1.16488 11.2701 1.83788C11.7111 2.46288 11.6391 3.37288 11.0651 3.98588C10.8961 4.16688 10.9381 4.29688 11.0221 4.46788C11.7661 4.07788 12.2481 3.16688 12.1541 2.34188C12.0531 1.45988 11.4861 0.809877 10.6401 0.607878C9.84711 0.417877 8.93613 0.789877 8.45313 1.50488ZM2.60212 3.58088C2.92411 2.97088 3.35813 2.47188 3.89112 2.05888C3.52112 1.69588 2.90211 1.69588 2.54712 2.05188C2.1691 2.43088 2.18613 3.15088 2.60212 3.58088ZM10.6571 3.57988C11.0731 3.15588 11.0911 2.43288 10.7131 2.05288C10.3591 1.69688 9.74512 1.69488 9.36811 2.05888C9.90113 2.47188 10.3351 2.97088 10.6571 3.57988Z" fill="black"/>
<path d="M6.63001 9.27878C5.99201 9.27878 5.39899 9.12177 4.86798 8.75677C3.779 8.00677 3.75598 6.67278 4.818 5.88677C4.85199 5.86078 4.887 5.83377 4.92398 5.81278C5.24298 5.63577 5.534 5.43577 5.80899 5.18078C6.36298 4.66678 7.25998 4.81377 7.698 5.42477C7.741 5.48478 7.81299 5.52778 7.87799 5.56677C8.08799 5.69477 8.31998 5.79378 8.50998 5.94678C9.499 6.74178 9.457 7.99578 8.42301 8.73477C7.888 9.11777 7.28299 9.27978 6.63001 9.27878ZM6.926 7.71178C7.11701 7.62877 7.275 7.56378 7.43 7.49077C7.60898 7.40677 7.76499 7.43878 7.84699 7.58578C7.93 7.73277 7.88001 7.88478 7.69999 7.98577C6.991 8.38278 6.27799 8.38378 5.56699 7.99077C5.38401 7.88978 5.32999 7.74177 5.40799 7.59378C5.48899 7.43778 5.64798 7.40478 5.83799 7.49478C5.99201 7.56777 6.15 7.63077 6.32999 7.70777V7.14377C6.11701 7.01278 5.89899 6.92177 5.73999 6.76978C5.582 6.61877 5.48398 6.40578 5.357 6.21677C4.48301 6.66678 4.34 7.61278 5.07898 8.21477C5.905 8.88777 7.36701 8.88577 8.18698 8.20878C8.76999 7.72777 8.81501 7.01577 8.28699 6.49978C8.16599 6.38078 8.01899 6.28778 7.87 6.17177C7.72998 6.68678 7.39701 6.96878 6.926 7.10078V7.71178ZM5.917 5.97078C5.97599 6.10577 6.004 6.22377 6.07099 6.31178C6.31998 6.63778 6.922 6.63778 7.18601 6.32077C7.35099 6.12078 7.34299 5.85678 7.16599 5.66477C6.914 5.39178 6.41999 5.36378 6.142 5.62378C6.04599 5.71378 5.99298 5.84978 5.917 5.97078Z" fill="black"/>
<path d="M5.28789 4.96977C5.23387 5.02877 5.17488 5.14977 5.09089 5.16977C4.99687 5.19277 4.84587 5.15677 4.7809 5.08877C4.52287 4.82177 4.44389 4.81277 4.20289 5.09177C4.10487 5.20577 3.98189 5.23077 3.85289 5.16377C3.72487 5.09577 3.67189 4.98077 3.71489 4.83577C3.79887 4.55677 4.12688 4.33977 4.46788 4.33277C4.81889 4.32677 5.1599 4.53477 5.25288 4.81477C5.26488 4.84977 5.26988 4.88677 5.28789 4.96977Z" fill="black"/>
<path d="M8.74934 4.33093C9.10234 4.33593 9.36134 4.47593 9.51933 4.77793C9.59834 4.92893 9.55333 5.09093 9.41334 5.16093C9.26835 5.23193 9.14134 5.20393 9.03935 5.06793C8.85334 4.81993 8.69435 4.82393 8.50035 5.07393C8.40233 5.19993 8.25334 5.23393 8.12434 5.15893C7.99534 5.08393 7.94633 4.93493 8.01933 4.78893C8.17033 4.48193 8.43034 4.34293 8.74934 4.33093Z" fill="black"/>
</svg>
