<svg width="24" height="19" viewBox="0 0 24 19" fill="none" xmlns="http://www.w3.org/2000/svg">
<path d="M6.63132 9.67591L7.4614 8.03418H7.13342C5.5921 8.03418 4.05081 8.02866 2.50952 8.03971C2.20273 8.04157 2.00372 7.94483 1.83972 7.68041C1.46017 7.06501 1.05389 6.46709 0.65683 5.8618C0.53244 5.67295 0.50296 5.48224 0.662354 5.30075C0.858582 5.07689 1.15799 5.1165 1.34686 5.40026C1.70984 5.94565 2.05902 6.50026 2.42938 7.04105C2.48834 7.12766 2.62469 7.21058 2.72693 7.21058C4.24243 7.22162 5.75797 7.21886 7.27438 7.21793C7.33884 7.21793 7.40427 7.20595 7.50284 7.19675C7.30569 6.70295 7.11868 6.23217 6.93167 5.76047C6.80637 5.44539 6.67554 5.13123 6.56131 4.81156C6.51248 4.67705 6.44244 4.63375 6.30151 4.63744C5.95236 4.64849 5.60318 4.64388 5.254 4.6402C4.95367 4.63744 4.77493 4.48265 4.77219 4.23116C4.76849 3.97596 4.93985 3.81749 5.24387 3.81656C6.27386 3.81289 7.30478 3.81289 8.33478 3.81656C8.6434 3.81749 8.80923 3.96859 8.80829 4.22654C8.80646 4.4845 8.63419 4.63651 8.33292 4.6402C8.0289 4.64388 7.72394 4.64112 7.41257 4.64112C8.02707 6.55831 8.93729 8.30965 9.96082 10.0398C10.2962 9.65656 10.6278 9.277 10.9576 8.89559C12.4686 7.15162 13.9794 5.40763 15.4839 3.65812C15.5511 3.58072 15.6083 3.43793 15.5843 3.34856C15.4286 2.75988 15.249 2.17669 15.0721 1.57509C14.2328 1.57509 13.399 1.57509 12.5662 1.57509C12.1479 1.57418 11.9296 1.42678 11.9379 1.14855C11.9453 0.874928 12.1415 0.748722 12.5598 0.747791C13.4626 0.747791 14.3655 0.746861 15.2683 0.748722C15.647 0.748722 15.7465 0.823338 15.8506 1.18171C16.0431 1.8395 16.2338 2.4973 16.4273 3.16153C17.7678 3.16153 19.087 3.16153 20.4063 3.16153C20.4828 3.16153 20.5602 3.16062 20.6366 3.16246C20.925 3.17076 21.0807 3.31815 21.0678 3.6102C21.042 4.17957 21.0015 4.74891 20.9609 5.31734C20.9001 6.16677 20.8347 7.01525 20.7684 7.86376C20.7426 8.18344 20.5988 8.31704 20.2755 8.31887C19.5099 8.32163 18.7443 8.31978 17.9363 8.31978L18.2155 9.28713C19.579 9.11577 20.7932 9.43731 21.838 10.3217C22.6828 11.0366 23.2061 11.9524 23.3599 13.045C23.6944 15.4146 22.2682 17.5464 20 18.1185C17.8009 18.6722 15.5014 17.4598 14.6999 15.3178C13.8947 13.1666 14.8169 10.5143 17.3781 9.4935L16.9359 7.96878C16.6272 8.36217 16.3508 8.71225 16.0763 9.06418C14.7367 10.7833 13.3954 12.5015 12.0604 14.2243C11.9056 14.4242 11.7288 14.5117 11.4736 14.508C10.6988 14.497 9.92395 14.5062 9.1492 14.5016C9.0036 14.5016 8.93359 14.5246 8.89581 14.696C8.39557 16.9328 6.39273 18.4069 4.10699 18.2328C1.82407 18.0596 -0.000976562 16.0742 -0.000976562 13.7655C-0.000976562 11.1113 2.23773 9.02456 4.8772 9.2641C5.45947 9.31661 6.02603 9.52851 6.63132 9.67591ZM17.6203 10.319C15.7502 10.9989 14.7838 13.1243 15.4636 14.9991C16.1491 16.8877 18.2514 17.879 20.1437 17.2055C22.0526 16.5266 23.0568 14.4224 22.3778 12.5217C21.6768 10.5557 19.6582 9.86477 18.4633 10.1384C18.6946 10.9289 18.9258 11.7175 19.1561 12.507C19.2943 12.9796 19.4371 13.4513 19.5689 13.9258C19.6444 14.1985 19.521 14.4196 19.274 14.4878C19.0502 14.5495 18.8291 14.4177 18.7415 14.1681C18.7139 14.0879 18.6955 14.005 18.6715 13.9239C18.3224 12.7272 17.9741 11.5314 17.6203 10.319ZM6.20477 10.518C4.97949 9.8187 3.24286 9.92098 2.04242 11.0155C0.788574 12.1588 0.467957 13.9479 1.24277 15.4431C2.00928 16.9218 3.66296 17.68 5.33508 17.3198C6.68661 17.0277 8.00128 15.6735 8.05469 14.5043C7.02472 14.5043 5.99472 14.5053 4.96564 14.5034C4.51144 14.5025 4.33731 14.2197 4.54092 13.8115C4.81088 13.2717 5.08542 12.7346 5.35718 12.1956C5.64001 11.6364 5.92285 11.0772 6.20477 10.518ZM15.9142 4.46885C15.8607 4.51491 15.8331 4.53424 15.8109 4.55912C14.0366 6.61359 12.264 8.66988 10.4869 10.7216C10.3975 10.8248 10.404 10.8994 10.4666 11.0099C10.7043 11.4319 10.9319 11.8593 11.164 12.2841C11.3464 12.6176 11.5307 12.9501 11.7435 13.3371C11.7785 13.2698 11.7905 13.2367 11.8108 13.2109C13.3862 11.1813 14.9625 9.15354 16.5323 7.11936C16.5913 7.04288 16.6115 6.89824 16.5867 6.80245C16.4632 6.32613 16.3177 5.85628 16.1804 5.38367C16.0938 5.08609 16.0072 4.7876 15.9142 4.46885ZM16.6696 3.98702C17.0003 5.12294 17.321 6.23677 17.6563 7.346C17.6765 7.41233 17.8166 7.4805 17.9023 7.48235C18.514 7.49433 19.1266 7.48143 19.7384 7.49248C19.9346 7.49616 19.9963 7.44182 20.0056 7.23821C20.0359 6.56842 20.094 5.89867 20.1382 5.22889C20.1649 4.818 20.187 4.40711 20.2119 3.98702H16.6696ZM10.9346 13.6568L8.133 8.51603L7.27991 10.1964C8.379 11.1002 8.93637 12.2601 9.0119 13.6568H10.9346ZM6.89111 10.9611L5.52579 13.654H8.16156C8.12656 12.566 7.6954 11.6944 6.89111 10.9611Z" fill="black"/>
</svg>
