<svg width="28" height="17" viewBox="0 0 28 17" fill="none" xmlns="http://www.w3.org/2000/svg">
<path d="M27.6243 12.7616C27.6178 12.7681 27.608 12.773 27.6055 12.7804C27.1546 14.0962 26.5286 14.5422 25.1302 14.5422C25.0582 14.5422 24.9862 14.5422 24.9141 14.5422C24.6089 14.5422 24.2636 14.4538 24.0091 14.5683C23.7685 14.6755 23.627 14.9988 23.4379 15.2238C22.1115 16.8015 19.5806 16.5641 18.538 14.7598C18.4456 14.6003 18.3539 14.5372 18.1666 14.5372C15.2624 14.5438 12.3592 14.543 9.45504 14.5389C9.28649 14.5389 9.18993 14.5773 9.09746 14.7377C7.92159 16.7859 5.02157 16.7843 3.84896 14.7353C3.75567 14.5724 3.65505 14.5405 3.48974 14.5381C2.8883 14.5307 2.27703 14.5741 1.69033 14.4767C0.693656 14.3122 0.0038365 13.4113 0.000571118 12.3974C-0.00187029 11.4089 -0.00107683 10.4196 0.000571118 9.43113C0.00218855 8.41318 0.651084 7.57117 1.63143 7.31668C2.06512 7.20375 2.4988 7.09246 2.93578 6.99345C3.38421 6.89117 3.70904 6.64323 3.9316 6.24063C4.46679 5.27341 5.01504 4.31438 5.80221 3.519C7.6 1.7024 9.76766 0.752371 12.3297 0.732733C13.3886 0.723734 14.4474 0.691001 15.4932 0.936488C18.016 1.52974 19.957 2.92247 21.3202 5.12285C21.4806 5.38224 21.6557 5.63837 21.7752 5.91658C22.0861 6.63832 22.6549 6.90917 23.4003 7.00409C24.0353 7.08428 24.6891 7.19802 25.2758 7.43942C26.5622 7.96803 27.3175 8.97453 27.5728 10.3476C27.5826 10.3983 27.6071 10.4466 27.6243 10.4957V12.7616ZM18.1305 13.6674C17.9194 11.7714 19.3105 10.2519 21.0658 10.1962C21.8194 10.1725 22.5026 10.4049 23.0812 10.895C23.9338 11.6168 24.2595 12.5578 24.1597 13.6674C24.6621 13.6674 25.1392 13.7001 25.6097 13.6584C26.135 13.6109 26.5606 13.3123 26.6677 12.7967C26.7815 12.246 26.7569 11.6675 26.7938 11.0882C26.5474 11.0882 26.3764 11.0914 26.2062 11.0873C25.1236 11.0612 24.1695 10.0825 24.172 9.00071C24.1728 8.65949 24.3217 8.50483 24.658 8.49992C24.8863 8.49747 25.1146 8.49992 25.3429 8.49992C25.194 8.35836 25.0377 8.24216 24.8634 8.20043C24.316 8.06868 23.7661 7.92303 23.2089 7.85838C22.2326 7.74464 21.4929 7.3265 21.0568 6.41983C20.925 6.1457 20.7638 5.88467 20.605 5.62364C19.4946 3.79558 17.9162 2.56733 15.8721 1.93561C14.6496 1.55757 13.3902 1.55102 12.1333 1.60257C9.65063 1.70486 7.5779 2.69417 6.00762 4.62942C5.50191 5.25131 5.11242 5.97141 4.70327 6.66614C4.33996 7.28395 3.8359 7.68082 3.14113 7.84611C2.70583 7.95003 2.26885 8.0515 1.83926 8.17588C1.65349 8.22988 1.48412 8.33954 1.30819 8.42382L1.33599 8.49992C1.59377 8.49992 1.85152 8.49665 2.10927 8.50074C2.46688 8.50565 2.65591 8.73804 2.57162 9.08745C2.44478 9.61852 2.3073 10.148 2.1682 10.6766C2.0823 11.0022 1.96773 11.0865 1.63796 11.089C1.38183 11.0898 1.12572 11.089 0.863852 11.089C0.863852 11.5554 0.854026 11.9785 0.866294 12.4007C0.883506 12.9694 1.24682 13.5095 1.77462 13.6003C2.32284 13.6952 2.89156 13.6756 3.46029 13.7059C3.24999 11.7412 4.65826 10.2494 6.3922 10.1962C7.14583 10.1733 7.8283 10.4057 8.40685 10.8959C9.25948 11.6184 9.58352 12.5594 9.4837 13.6674H18.1305ZM4.31704 13.2354C4.30804 14.4006 5.28014 15.3915 6.44787 15.4055C7.62374 15.4194 8.61632 14.4431 8.63103 13.2583C8.64577 12.0988 7.67037 11.1062 6.49938 11.089C5.32516 11.0726 4.32604 12.0546 4.31704 13.2354ZM23.307 13.2255C23.2972 12.0595 22.3071 11.0824 21.1427 11.089C19.9611 11.0963 18.9783 12.0914 18.9922 13.2673C19.0053 14.4374 19.9962 15.4161 21.1558 15.4046C22.3406 15.3932 23.3169 14.4047 23.307 13.2255ZM25.1384 9.3624C25.3699 9.99902 25.9689 10.3198 26.6669 10.188C26.5614 9.95402 26.4681 9.72326 26.3527 9.50396C26.3183 9.44013 26.2234 9.37222 26.1539 9.36894C25.8241 9.35503 25.4935 9.3624 25.1384 9.3624ZM0.868766 10.2265C1.00707 10.2265 1.12325 10.2355 1.23699 10.2224C1.2951 10.2151 1.38509 10.1782 1.39739 10.1357C1.47021 9.89019 1.52505 9.63898 1.58639 9.38449H0.868766V10.2265Z" fill="black"/>
<path d="M9.06083 7.20386C8.07155 7.20386 7.08305 7.20632 6.09373 7.20304C5.71898 7.20141 5.52504 6.94037 5.64451 6.59587C6.29258 4.73018 7.47258 3.34072 9.30143 2.54208C10.1868 2.15585 11.1164 1.98728 12.0828 2.02574C12.3544 2.0372 12.5148 2.1943 12.5148 2.47088C12.5189 3.90043 12.5189 5.32998 12.5148 6.75953C12.514 7.05248 12.343 7.20304 12.028 7.20304C11.0386 7.2055 10.0502 7.20386 9.06083 7.20386ZM6.72709 6.32257H11.6401V2.9144C9.38243 2.94467 7.36699 4.53297 6.72709 6.32257Z" fill="black"/>
<path d="M14.2607 6.32897H19.1967C18.9225 5.6457 18.5208 5.07045 18.0216 4.55984C17.9651 4.50174 17.9037 4.44855 17.8489 4.38963C17.6509 4.17606 17.6427 3.92403 17.8268 3.74318C18.0036 3.56971 18.2662 3.55498 18.4495 3.76528C18.8497 4.22434 19.2613 4.68176 19.5911 5.18992C19.866 5.61379 20.0444 6.10313 20.2408 6.57446C20.3889 6.93287 20.1909 7.2029 19.8014 7.2029C17.8228 7.20536 15.845 7.20536 13.8663 7.2029C13.5398 7.2029 13.3827 7.04907 13.3827 6.7283C13.3802 5.31593 13.3802 3.90438 13.3827 2.49284C13.3835 2.1958 13.5374 2.03542 13.8205 2.0256C14.9285 1.98877 15.9759 2.22363 16.9668 2.72033C17.1738 2.82425 17.3252 2.98463 17.2499 3.20721C17.2009 3.35204 17.047 3.50588 16.9038 3.55907C16.7901 3.60162 16.6125 3.51652 16.4791 3.45351C15.7811 3.12211 15.0488 2.93717 14.2607 2.90199V6.32897Z" fill="black"/>
<path d="M6.04893 8.49899C5.90574 8.49899 5.76173 8.50309 5.61851 8.49818C5.34931 8.48754 5.17665 8.31324 5.18074 8.0604C5.184 7.81818 5.35011 7.64552 5.60624 7.63815C5.89265 7.63079 6.17988 7.63161 6.46626 7.63815C6.73713 7.64471 6.90895 7.82227 6.90568 8.07512C6.90159 8.31652 6.73466 8.4859 6.47853 8.49736C6.33616 8.50391 6.19215 8.49899 6.04893 8.49899Z" fill="black"/>
<path d="M14.2418 7.63671C14.3949 7.63753 14.5471 7.63016 14.6993 7.63917C14.9472 7.65389 15.1117 7.83801 15.106 8.08022C15.1002 8.31016 14.939 8.48773 14.7009 8.49591C14.3965 8.50655 14.0913 8.50655 13.7877 8.49591C13.5389 8.48691 13.3753 8.29788 13.381 8.05486C13.3868 7.82328 13.5471 7.65799 13.7853 7.63753C13.8033 7.63589 13.8213 7.63671 13.8393 7.63671C13.9734 7.63671 14.1077 7.63671 14.2418 7.63671Z" fill="black"/>
<path d="M6.46211 14.5412C5.74367 14.538 5.17741 13.9603 5.18068 13.2344C5.18315 12.5143 5.75758 11.9522 6.4875 11.953C7.20759 11.9538 7.77385 12.5315 7.76893 13.2582C7.76402 13.9807 7.18959 14.5445 6.46211 14.5412ZM6.48668 12.8179C6.26652 12.8089 6.04887 13.0184 6.04561 13.241C6.04152 13.4513 6.23466 13.6591 6.44823 13.6747C6.6667 13.691 6.88927 13.4906 6.90236 13.2664C6.91545 13.0479 6.71007 12.8261 6.48668 12.8179Z" fill="black"/>
<path d="M22.4445 13.2542C22.4404 13.9775 21.8676 14.5438 21.1418 14.5413C20.4209 14.5397 19.8538 13.9644 19.8555 13.2394C19.8579 12.5079 20.4381 11.9457 21.1852 11.9531C21.8873 11.9596 22.4478 12.539 22.4445 13.2542ZM21.5779 13.2501C21.5812 13.0299 21.3676 12.8155 21.1459 12.818C20.9348 12.8196 20.731 13.0177 20.7204 13.2304C20.7097 13.4497 20.916 13.6698 21.1393 13.6756C21.3603 13.6821 21.5755 13.4735 21.5779 13.2501Z" fill="black"/>
</svg>
