<svg width="17" height="20" viewBox="0 0 17 20" fill="none" xmlns="http://www.w3.org/2000/svg">
<path d="M13.0324 5.42833L14.0864 3.30034C14.2454 2.97834 14.3134 2.95633 14.6414 3.11734C14.7724 3.18134 14.9034 3.24533 15.0324 3.31234C15.2514 3.42534 15.2844 3.52034 15.1744 3.74334C14.8324 4.43933 14.4884 5.13434 14.1444 5.82933C14.1274 5.86434 14.1124 5.90134 14.0904 5.95034C14.1224 5.97133 14.1524 5.99234 14.1854 6.01033C14.4554 6.16333 14.5064 6.31833 14.3674 6.60134C13.8694 7.61234 13.3684 8.62134 12.8694 9.63134C12.8144 9.74434 12.7604 9.85733 12.6954 9.99034C13.1514 10.1443 13.5984 10.2953 14.0464 10.4473C14.4284 10.5763 14.8144 10.6973 15.1914 10.8413C15.2974 10.8823 15.4134 10.9703 15.4664 11.0673C15.8404 11.7543 16.2004 12.4493 16.5624 13.1423C16.6824 13.3733 16.6534 13.4653 16.4214 13.5913C16.1244 13.7523 15.8294 13.9183 15.5244 14.0633C15.3754 14.1353 15.3344 14.2273 15.3354 14.3853C15.3434 15.2223 15.3354 16.0593 15.3424 16.8963C15.3444 17.1013 15.2764 17.2223 15.0854 17.3143C13.2644 18.1873 11.4464 19.0683 9.6294 19.9513C9.4914 20.0183 9.3734 20.0153 9.2344 19.9483C7.4104 19.0623 5.5854 18.1803 3.7574 17.3013C3.5934 17.2223 3.5244 17.1183 3.5254 16.9313C3.5334 16.0683 3.5264 15.2043 3.5324 14.3413C3.5334 14.2103 3.4964 14.1413 3.3774 14.0823C3.0564 13.9233 2.7424 13.7503 2.4274 13.5803C2.2214 13.4693 2.1874 13.3663 2.2954 13.1593C2.6634 12.4543 3.0304 11.7493 3.4094 11.0493C3.4574 10.9613 3.5604 10.8803 3.6564 10.8463C4.1474 10.6673 4.6444 10.5053 5.1394 10.3363C5.1944 10.3183 5.2474 10.2963 5.3004 10.2643C4.9304 10.2773 4.5924 10.1923 4.2954 9.97234C3.9954 9.75034 3.8044 9.45833 3.7194 9.09433C3.5724 8.46733 3.8594 7.80634 4.4284 7.47734C4.9974 7.14833 5.7204 7.22934 6.1964 7.68334C6.6114 8.07933 6.8924 8.79334 6.3874 9.65834C6.8634 10.0733 7.3414 10.5013 7.8314 10.9163C8.0704 11.1173 8.2064 11.3453 8.1274 11.6613C8.0574 11.9413 7.8434 12.1293 7.5734 12.1623C7.2724 12.1993 7.0404 12.0893 6.8864 11.8273C6.6344 11.3993 6.3864 10.9693 6.1274 10.5223L4.2994 11.1363C4.3744 11.1793 4.4244 11.2103 4.4764 11.2363C6.0774 12.0353 7.6794 12.8343 9.2794 13.6353C9.3794 13.6853 9.4594 13.7023 9.5714 13.6463C11.1814 12.8363 12.7944 12.0333 14.4064 11.2273C14.4524 11.2043 14.4964 11.1763 14.5634 11.1373L12.4754 10.4323C12.3064 10.7733 12.1404 11.1093 11.9734 11.4453C11.9204 11.5523 11.8714 11.6613 11.8084 11.7623C11.6804 11.9693 11.4414 12.0593 11.2214 11.9583C10.8124 11.7703 10.4064 11.5733 10.0104 11.3603C9.7494 11.2203 9.6974 10.9543 9.8454 10.6533C10.2174 9.89833 10.5914 9.14434 10.9644 8.38933C11.4104 7.48633 11.8564 6.58434 12.3024 5.68134C12.4924 5.29634 12.6084 5.25335 13.0324 5.42833ZM9.6814 19.3723C9.7374 19.3493 9.7794 19.3343 9.8194 19.3153C11.4534 18.5253 13.0874 17.7333 14.7234 16.9473C14.8364 16.8933 14.8534 16.8243 14.8534 16.7163C14.8494 16.0393 14.8514 15.3613 14.8514 14.6843V14.4343C14.7624 14.4783 14.7034 14.5063 14.6454 14.5373C13.3764 15.2113 12.1064 15.8863 10.8374 16.5593C10.5994 16.6853 10.4974 16.6523 10.3774 16.4133C10.1774 16.0173 9.9804 15.6193 9.7804 15.2233C9.7564 15.1753 9.7244 15.1313 9.6814 15.0623V19.3723ZM9.1854 15.1093L9.1504 15.0983C8.9374 15.5213 8.7244 15.9453 8.5114 16.3693C8.3624 16.6663 8.2774 16.6943 7.9844 16.5383C6.7264 15.8683 5.4694 15.1983 4.2114 14.5293C4.1504 14.4963 4.0884 14.4673 4.0084 14.4273C4.0084 15.2293 4.0054 15.9993 4.0144 16.7693C4.0154 16.8283 4.0924 16.9123 4.1554 16.9433C5.7204 17.7053 7.2884 18.4623 8.8564 19.2203C8.9614 19.2703 9.0664 19.3203 9.1854 19.3783V15.1093ZM9.1054 14.0913L3.7584 11.4223L2.8074 13.2313L8.1234 16.0563L9.1054 14.0913ZM15.1074 11.4223L9.7614 14.0933L10.7444 16.0583L16.0584 13.2313L15.1074 11.4223ZM13.5614 6.24634C13.5364 6.28234 13.5244 6.29834 13.5154 6.31534C12.8444 7.67534 12.1734 9.03434 11.5054 10.3953C11.4814 10.4443 11.4664 10.5103 11.4764 10.5633C11.5064 10.7293 11.5504 10.8933 11.5984 11.1013L13.9134 6.42034L13.5614 6.24634ZM10.4584 10.5123C10.8134 10.4053 11.0554 10.2463 11.2114 9.90734C11.6694 8.91533 12.1694 7.94333 12.6524 6.96334C12.8034 6.65634 12.9534 6.34833 13.1104 6.02634L12.7644 5.85035L10.4584 10.5123ZM5.1594 7.76934C4.5844 7.77234 4.1424 8.24834 4.1644 8.82733C4.1704 8.99134 4.2384 9.03534 4.3864 9.00634C4.8634 8.91533 5.2284 8.67034 5.4514 8.23233C5.6434 7.85334 5.5884 7.76734 5.1594 7.76934ZM4.4874 9.48833C4.9024 9.86434 5.4774 9.85933 5.8574 9.49933C6.2184 9.15634 6.2844 8.59334 5.9894 8.23334C5.7134 8.91133 5.2214 9.33034 4.4874 9.48833ZM6.8564 10.7583C7.0214 11.0603 7.1504 11.3123 7.2984 11.5543C7.3354 11.6153 7.4284 11.6663 7.5004 11.6723C7.5474 11.6763 7.6354 11.5963 7.6434 11.5443C7.6534 11.4803 7.6194 11.3843 7.5704 11.3413C7.3524 11.1493 7.1224 10.9723 6.8564 10.7583ZM14.1754 4.66733L14.1464 4.59334C14.0844 4.61434 13.9874 4.61734 13.9654 4.66034C13.7944 4.98033 13.6384 5.30834 13.4724 5.64334L13.6434 5.74034L14.1754 4.66733ZM11.1594 11.3923L11.0254 10.8093L10.4864 11.0593L11.1594 11.3923ZM14.4884 3.58834L14.2264 4.11834L14.4064 4.19834L14.6614 3.68233L14.4884 3.58834Z" fill="black"/>
<path d="M6.32034 2.11236C6.95233 2.32735 7.57234 2.53835 8.19234 2.74935C8.48434 2.84835 8.52034 2.93035 8.43334 3.21935C8.26734 3.76836 8.04634 4.28236 7.56534 4.63436C7.38734 4.76536 7.19034 4.87035 6.98634 4.99636C7.37634 5.15336 7.63433 5.42136 7.68933 5.83836C7.70834 5.98435 7.68833 6.14236 7.65334 6.28736C7.61234 6.45635 7.47334 6.51635 7.28733 6.44135C7.09834 6.36436 6.95934 6.36335 6.77333 6.49135C6.39534 6.75336 5.88634 6.52535 5.78034 6.06435C5.75234 5.94436 5.69934 5.90235 5.59834 5.86936C5.23434 5.74935 4.87234 5.61936 4.50534 5.50736C4.43434 5.48536 4.32434 5.50135 4.26634 5.54536C3.84634 5.86635 3.30033 5.69535 3.16534 5.18235C3.13433 5.06235 3.07833 5.00336 2.96434 4.97936C2.90634 4.96735 2.85034 4.94436 2.79534 4.92136C2.62134 4.84835 2.57334 4.73435 2.64034 4.55436C2.80734 4.10136 3.32934 3.82236 3.80133 3.93836C3.95934 3.97736 4.11334 4.03036 4.26434 4.07535C4.17633 3.79436 4.07733 3.53036 4.01034 3.25936C3.90634 2.83835 3.99734 2.43035 4.13433 2.02935C4.23334 1.73835 4.12134 1.50336 3.83834 1.40136C3.44834 1.26136 3.30133 1.07035 3.33234 0.744361C3.34934 0.554358 3.44134 0.465354 3.63034 0.48136C3.79534 0.495353 3.95734 0.541358 4.12134 0.551352C4.20233 0.556357 4.31234 0.538352 4.36534 0.485358C4.88734 -0.0396511 5.57434 -0.109643 6.12033 0.322364C6.56333 0.671363 6.80634 1.39835 6.34534 2.05436C6.33834 2.06435 6.33434 2.07836 6.32034 2.11236ZM7.91133 3.17736C7.86034 3.15636 7.80834 3.13236 7.75334 3.11335C7.20233 2.92635 6.65034 2.74036 6.09834 2.55335C5.72034 2.42435 5.63834 2.14036 5.89134 1.83636C5.90834 1.81635 5.92633 1.79636 5.94234 1.77535C6.16734 1.47335 6.15134 1.05836 5.90334 0.786353C5.64534 0.503363 5.22734 0.449363 4.90634 0.658362C4.59734 0.860358 4.46434 1.26536 4.62534 1.60436C4.70434 1.77236 4.70133 1.91836 4.63834 2.07935C4.60034 2.17835 4.56433 2.27836 4.53533 2.38036C4.25833 3.35636 4.83234 4.32436 5.82733 4.56235C6.76734 4.78635 7.72334 4.15536 7.91133 3.17736ZM6.18634 5.25036L4.42134 4.65336C4.44534 4.89936 4.54534 5.02935 4.78034 5.08535C5.07434 5.15536 5.36234 5.26136 5.64134 5.37836C5.85734 5.46935 6.02333 5.44236 6.18634 5.25036ZM4.09334 5.02836C3.96234 4.94036 3.88333 4.84536 3.81734 4.85436C3.74834 4.86236 3.64234 4.97135 3.64434 5.03435C3.64534 5.09835 3.75334 5.20336 3.82234 5.21035C3.88834 5.21735 3.96533 5.12035 4.09334 5.02836ZM6.65634 5.95936L6.65734 5.87536C6.58434 5.82836 6.50634 5.73936 6.43933 5.74636C6.36933 5.75436 6.30834 5.85535 6.24433 5.91535C6.30734 5.97835 6.36634 6.08236 6.43634 6.09035C6.50334 6.09936 6.58234 6.00736 6.65634 5.95936Z" fill="black"/>
<path d="M8.23601 6.78845C9.00001 6.81645 9.49801 7.06146 9.86801 7.55846C9.91601 7.62245 9.98601 7.67845 10.058 7.71146C10.361 7.85246 10.456 8.17245 10.278 8.45845C10.239 8.52145 10.21 8.60046 10.204 8.67445C10.134 9.53645 9.68001 10.1095 8.85201 10.3705C8.67501 10.4265 8.49801 10.4795 8.32001 10.5285C7.97001 10.6255 7.70001 10.4265 7.67801 10.0635C7.65801 9.73946 7.64201 9.41446 7.61001 9.09146C7.57301 8.71646 7.35901 8.41345 7.18001 8.09746C7.10501 7.96446 7.02201 7.83545 6.96001 7.69746C6.85201 7.46045 6.93801 7.18146 7.18001 7.09746C7.57001 6.95946 7.97501 6.86345 8.23601 6.78845ZM7.38301 7.53046C7.97601 8.27945 8.22001 9.11546 8.14201 10.0715L8.54101 9.95445C8.47901 9.03346 8.22901 8.19446 7.78301 7.40945L7.38301 7.53046ZM8.96501 9.15245C9.16701 8.97546 9.38201 8.82945 9.54201 8.63745C9.78701 8.34245 9.69801 8.06445 9.32701 7.95845C9.09201 7.89046 8.83801 7.89046 8.57801 7.85846L8.96501 9.15245ZM9.39901 9.48546L9.35401 9.43546C9.28001 9.57045 9.01701 9.49745 9.06901 9.77046L9.39901 9.48546ZM8.78401 7.33345L8.32201 7.28645L8.31601 7.35646C8.45801 7.50145 8.62701 7.35446 8.78401 7.33345Z" fill="black"/>
<path d="M10.4538 3.07239C11.3538 3.07338 12.0888 3.81139 12.0838 4.70939C12.0788 5.60938 11.3428 6.34038 10.4438 6.33939C9.54278 6.33739 8.81078 5.61039 8.80278 4.70838C8.79578 3.80838 9.53978 3.07038 10.4538 3.07239ZM11.6078 4.59438L11.4468 4.12139L9.85578 5.70238L10.2988 5.85338C10.4588 5.14038 10.8758 4.72338 11.6078 4.59438ZM11.0448 3.71038L10.6428 3.55738C10.5868 3.92339 10.4498 4.21738 10.2048 4.45638C9.95478 4.69939 9.64478 4.81539 9.28378 4.86939L9.45578 5.29538L11.0448 3.71038ZM9.35378 4.34638C9.77778 4.27338 10.0828 3.97039 10.0998 3.61438C9.72478 3.73038 9.49378 3.97438 9.35378 4.34638ZM10.8448 5.77938C11.1548 5.65639 11.3678 5.45638 11.4998 5.14939C11.1838 5.18538 10.9288 5.43139 10.8448 5.77938Z" fill="black"/>
<path d="M11.4646 2.60652C11.3466 2.54852 11.2086 2.51352 11.1136 2.43051C10.7616 2.11952 10.5186 1.74052 10.4506 1.26352C10.4126 0.989516 10.4576 0.734511 10.5846 0.493513C10.8716 -0.0494859 11.4776 -0.162477 11.9366 0.245512C12.0216 0.321516 12.0926 0.352522 12.2136 0.34352C12.8586 0.293516 13.2896 0.88951 13.0696 1.52751C12.8716 2.09952 12.4166 2.37251 11.8606 2.50851C11.7386 2.53851 11.6126 2.54951 11.4886 2.56851L11.4646 2.60652ZM10.9176 1.07951C10.9256 1.36952 11.0546 1.60252 11.2106 1.83252C11.3516 2.03851 11.5146 2.11452 11.7626 2.03752C12.1156 1.92752 12.4396 1.78752 12.5906 1.41852C12.7426 1.04751 12.5386 0.771513 12.1496 0.847517C11.9246 0.891508 11.7976 0.829512 11.6586 0.66252C11.4286 0.385512 11.1306 0.44052 10.9906 0.77252C10.9506 0.868513 10.9416 0.976515 10.9176 1.07951Z" fill="black"/>
<path d="M15.8861 7.78938C15.7511 7.79537 15.669 7.75437 15.574 7.67338C15.1681 7.32438 14.633 7.38337 14.323 7.81237C14.128 8.08238 14.06 8.38937 14.1091 8.71737C14.1771 9.17738 14.409 9.55038 14.7491 9.85438C14.849 9.94337 14.9871 9.98937 15.1081 10.0544L15.488 9.96238C16.0671 9.82537 16.5411 9.54937 16.7361 8.94837C16.939 8.32438 16.5241 7.75938 15.8861 7.78938ZM15.9041 9.26637C15.6801 9.38337 15.425 9.44137 15.183 9.51937C15.1521 9.52937 15.0981 9.51737 15.075 9.49438C14.7601 9.18937 14.531 8.84338 14.604 8.37537C14.6361 8.17538 14.724 8.00037 14.933 7.94337C15.1261 7.89137 15.2611 8.01737 15.366 8.15937C15.4701 8.30038 15.5841 8.33537 15.759 8.29937C16.1121 8.22437 16.296 8.36137 16.2901 8.73637C16.281 8.93838 16.132 9.14738 15.9041 9.26637Z" fill="black"/>
<path d="M1.69876 9.30347C1.20476 9.26047 0.750759 9.15649 0.389759 8.80948C0.114758 8.54449 -0.0502433 8.22549 0.0137597 7.83048C0.0817605 7.41448 0.386761 7.16048 0.809757 7.13248C0.892758 7.12647 0.996761 7.10049 1.04976 7.04449C1.30776 6.77648 1.59776 6.61848 1.97376 6.74148C2.37576 6.87348 2.58176 7.18247 2.64775 7.57947C2.75276 8.20847 2.49475 8.72347 2.07376 9.16048C1.98976 9.24747 1.82576 9.25748 1.69876 9.30347ZM2.20375 7.84348C2.17076 7.71648 2.15476 7.58248 2.10076 7.46648C1.93975 7.12447 1.61076 7.09048 1.40476 7.40348C1.28176 7.59148 1.15376 7.64948 0.928761 7.62247C0.575756 7.57947 0.395756 7.84048 0.533756 8.17148C0.580761 8.28348 0.657757 8.39448 0.747761 8.47549C1.01976 8.71848 1.35376 8.78847 1.70976 8.77347C1.74876 8.77148 1.79876 8.74448 1.82476 8.71248C2.03076 8.46148 2.17476 8.18348 2.20375 7.84348Z" fill="black"/>
<path d="M6.13451 4.3895C5.94352 4.3275 5.60252 4.22551 5.27052 4.10251C5.14751 4.0565 5.10252 3.94051 5.14851 3.80451C5.25052 3.50351 5.35052 3.2025 5.45152 2.90151C5.50851 2.7325 5.63251 2.66951 5.79452 2.7225C6.30952 2.8905 6.82352 3.06351 7.33352 3.2455C7.48452 3.29851 7.53551 3.4185 7.47852 3.5835C7.31451 4.06351 6.83252 4.39551 6.13451 4.3895ZM6.88752 3.60651L5.85152 3.25551L5.69052 3.72751C6.22552 3.97051 6.60052 3.99651 6.88752 3.60651Z" fill="black"/>
<path d="M5.50276 1.16646C5.50376 1.34645 5.35675 1.49046 5.17475 1.48845C5.00076 1.48546 4.85776 1.34945 4.85076 1.17845C4.84476 1.00845 4.99876 0.846449 5.17175 0.842451C5.34776 0.83946 5.50176 0.989454 5.50276 1.16646Z" fill="black"/>
</svg>
