<svg width="140" height="101" viewBox="0 0 140 101" fill="none" xmlns="http://www.w3.org/2000/svg">
<path d="M8.90933 1.04883H130.285C135.075 1.04883 138.958 4.93921 138.958 9.72923V92.0905C138.958 96.8726 135.075 100.763 130.285 100.763H8.90933C4.11933 100.763 0.236816 96.8726 0.236816 92.0905V9.72923C0.236816 4.93921 4.11933 1.04883 8.90933 1.04883Z" fill="white"/>
<path d="M130.285 101H8.90925C6.52609 101 4.29286 100.069 2.61201 98.3877C0.92328 96.7068 0 94.4657 0 92.0904V9.72919C0 4.8129 3.99299 0.812012 8.90925 0.812012H130.285C135.201 0.812012 139.194 4.8129 139.194 9.72919V92.0904C139.194 96.9988 135.201 101 130.285 101ZM8.90925 1.28554C4.26129 1.28554 0.473477 5.07329 0.473477 9.72919V92.0904C0.473477 94.3395 1.34941 96.4622 2.94345 98.0484C4.53749 99.6424 6.65235 100.518 8.90925 100.518H130.285C134.933 100.518 138.721 96.7384 138.721 92.0904V9.72919C138.721 5.07329 134.933 1.28554 130.285 1.28554H8.90925Z" fill="#E5E5E5"/>
<path d="M61.5109 69.9675H51.6851L57.8308 31.9668H67.6561L61.5109 69.9675Z" fill="#00579F"/>
<path d="M97.1337 32.898C95.1924 32.1247 92.1148 31.2803 88.3191 31.2803C78.6128 31.2803 71.779 36.4491 71.7395 43.8511C71.6606 49.304 76.6321 52.3422 80.3489 54.1571C84.1525 56.0194 85.4467 57.2347 85.4467 58.8919C85.4072 61.4329 82.3691 62.6086 79.544 62.6086C75.622 62.6086 73.5151 62.0011 70.327 60.5885L69.0328 59.9809L67.6519 68.5113C69.9561 69.5609 74.2095 70.4921 78.6128 70.5315C88.9267 70.5315 95.6343 65.4416 95.7132 57.5582C95.7527 53.2339 93.1249 49.9195 87.4669 47.2049C84.0342 45.4688 81.9272 44.293 81.9272 42.5175C81.9666 40.8998 83.7027 39.2426 87.5852 39.2426C90.7812 39.1637 93.1249 39.9291 94.9083 40.6946L95.7922 41.1049L97.1337 32.898Z" fill="#00579F"/>
<path d="M110.186 56.5087C110.999 54.3228 114.116 45.8712 114.116 45.8712C114.068 45.9501 114.921 43.6459 115.402 42.2333L116.089 45.5082C116.089 45.5082 117.951 54.6068 118.353 56.5087H110.186ZM122.315 31.9668H114.715C112.372 31.9668 110.596 32.6533 109.586 35.1233L94.9873 69.9633H105.293C105.293 69.9633 106.998 65.2759 107.361 64.2658H119.971C120.255 65.5994 121.147 69.9633 121.147 69.9633H130.246L122.315 31.9668Z" fill="#00579F"/>
<path d="M43.481 31.9668L33.8537 57.8817L32.8041 52.6261C31.0286 46.5578 25.4416 39.9685 19.2153 36.6937L28.0299 69.9238H38.4227L53.8659 31.9668H43.481Z" fill="#00579F"/>
<path d="M24.9207 31.9668H9.11445L8.94873 32.7322C21.2828 35.8887 29.4503 43.4881 32.8041 52.6261L29.3635 35.1627C28.8032 32.7322 27.0592 32.0457 24.9207 31.9668Z" fill="#FAA61A"/>
</svg>
